<svg id="svg" version="1.1" xmlns="http://www.w3.org/2000/svg" xmlns:xlink="http://www.w3.org/1999/xlink" width="400" height="651.5" viewBox="0, 0, 400,651.5"><g id="svgg"><path id="path0" d="M198.740 1.600 C 198.510 2.260,198.162 2.800,197.966 2.800 C 197.771 2.800,197.329 3.385,196.984 4.100 C 196.639 4.815,196.045 5.940,195.663 6.600 C 194.039 9.405,193.834 9.815,193.915 10.100 C 193.962 10.265,193.811 10.400,193.579 10.400 C 193.348 10.400,192.970 10.940,192.740 11.600 C 192.510 12.260,192.158 12.800,191.958 12.800 C 191.757 12.800,191.306 13.519,190.954 14.397 C 190.584 15.322,190.136 15.884,189.890 15.732 C 189.623 15.567,189.559 15.717,189.719 16.134 C 189.860 16.500,189.801 16.800,189.587 16.800 C 189.374 16.800,189.200 17.036,189.200 17.325 C 189.200 17.613,188.831 18.245,188.380 18.730 C 187.928 19.214,187.669 19.788,187.803 20.005 C 187.937 20.222,187.859 20.400,187.629 20.400 C 187.399 20.400,186.948 21.030,186.626 21.800 C 186.304 22.570,185.888 23.200,185.701 23.200 C 185.514 23.200,185.132 23.833,184.852 24.606 C 184.547 25.449,184.168 25.904,183.904 25.741 C 183.621 25.566,183.555 25.706,183.719 26.134 C 183.860 26.500,183.801 26.800,183.587 26.800 C 183.374 26.800,183.200 27.036,183.200 27.325 C 183.200 27.613,182.831 28.245,182.380 28.730 C 181.928 29.214,181.669 29.788,181.803 30.005 C 181.937 30.222,181.859 30.400,181.629 30.400 C 181.399 30.400,180.948 31.030,180.626 31.800 C 180.304 32.570,179.852 33.200,179.620 33.200 C 179.389 33.200,179.200 33.470,179.200 33.800 C 179.200 34.130,178.833 34.767,178.385 35.215 C 177.937 35.663,177.678 36.203,177.809 36.415 C 177.940 36.627,177.859 36.800,177.629 36.800 C 177.399 36.800,176.948 37.430,176.626 38.200 C 176.304 38.970,175.866 39.600,175.652 39.600 C 175.438 39.600,175.142 40.152,174.994 40.827 C 174.846 41.502,174.478 42.149,174.178 42.264 C 173.877 42.379,173.510 42.862,173.363 43.337 C 173.216 43.812,172.764 44.670,172.359 45.245 C 171.955 45.820,171.738 46.405,171.878 46.545 C 172.019 46.685,171.926 46.800,171.672 46.800 C 171.418 46.800,170.948 47.430,170.626 48.200 C 170.304 48.970,169.866 49.600,169.652 49.600 C 169.438 49.600,169.142 50.152,168.994 50.827 C 168.846 51.502,168.473 52.151,168.165 52.269 C 167.857 52.387,167.704 52.645,167.826 52.842 C 167.948 53.039,167.857 53.200,167.624 53.200 C 167.391 53.200,167.200 53.397,167.200 53.638 C 167.200 53.879,166.828 54.599,166.373 55.238 C 165.918 55.877,165.688 56.400,165.862 56.400 C 166.036 56.400,165.775 56.682,165.282 57.027 C 164.790 57.372,164.474 57.796,164.580 57.968 C 164.687 58.141,164.497 58.624,164.158 59.041 C 163.818 59.458,163.672 59.547,163.832 59.238 C 164.011 58.894,163.962 58.776,163.707 58.934 C 163.478 59.075,163.170 59.833,163.023 60.617 C 162.876 61.401,162.503 62.139,162.193 62.258 C 161.884 62.377,161.510 62.862,161.363 63.337 C 161.216 63.812,160.746 64.695,160.320 65.300 C 159.894 65.905,159.668 66.400,159.817 66.400 C 159.966 66.400,159.664 66.754,159.144 67.187 C 158.625 67.619,158.341 67.979,158.514 67.987 C 158.687 67.994,158.633 68.365,158.394 68.811 C 158.155 69.257,157.784 69.514,157.570 69.381 C 157.356 69.249,157.224 69.289,157.277 69.470 C 157.457 70.083,156.445 72.400,155.997 72.400 C 155.753 72.400,155.652 72.561,155.774 72.758 C 155.896 72.955,155.743 73.213,155.435 73.331 C 155.127 73.449,154.754 74.100,154.605 74.776 C 154.457 75.453,154.189 75.917,154.010 75.806 C 153.831 75.696,153.407 76.301,153.066 77.151 C 152.726 78.001,152.166 78.804,151.820 78.937 C 151.475 79.069,151.234 79.318,151.286 79.489 C 151.427 79.963,150.250 82.400,149.879 82.400 C 149.699 82.400,149.652 82.561,149.774 82.758 C 149.896 82.955,149.743 83.213,149.435 83.331 C 149.127 83.449,148.754 84.098,148.606 84.773 C 148.458 85.448,148.162 86.000,147.948 86.000 C 147.734 86.000,147.305 86.608,146.994 87.351 C 146.684 88.095,146.153 88.809,145.815 88.939 C 145.477 89.069,145.200 89.415,145.200 89.708 C 145.200 90.477,144.257 92.393,143.876 92.397 C 143.698 92.399,143.664 92.580,143.800 92.800 C 143.936 93.020,143.876 93.200,143.667 93.200 C 143.458 93.200,142.999 93.920,142.647 94.800 C 142.295 95.680,141.843 96.400,141.642 96.400 C 141.442 96.400,141.090 96.940,140.860 97.600 C 140.630 98.260,140.297 98.802,140.121 98.804 C 139.944 98.806,139.445 99.616,139.010 100.604 C 138.576 101.592,138.070 102.400,137.887 102.400 C 137.703 102.400,137.652 102.561,137.774 102.758 C 137.896 102.955,137.743 103.213,137.435 103.331 C 137.127 103.449,136.751 104.110,136.600 104.800 C 136.449 105.490,136.084 106.146,135.790 106.259 C 135.496 106.372,135.073 106.990,134.849 107.632 C 134.625 108.274,134.222 108.800,133.954 108.800 C 133.686 108.800,133.581 108.915,133.722 109.055 C 133.862 109.195,133.622 109.808,133.188 110.417 C 132.755 111.025,132.400 111.721,132.400 111.962 C 132.400 112.203,132.211 112.400,131.980 112.400 C 131.748 112.400,131.296 113.030,130.974 113.800 C 130.652 114.570,130.197 115.200,129.961 115.200 C 129.726 115.200,129.607 115.421,129.697 115.691 C 129.787 115.962,129.532 116.536,129.130 116.967 C 128.729 117.398,128.400 117.998,128.400 118.299 C 128.400 118.616,128.202 118.725,127.932 118.558 C 127.615 118.362,127.548 118.489,127.725 118.950 C 127.884 119.364,127.764 119.716,127.418 119.849 C 127.105 119.969,126.737 120.577,126.600 121.200 C 126.463 121.823,126.092 122.433,125.776 122.554 C 125.459 122.676,125.200 123.051,125.200 123.387 C 125.200 123.724,125.009 124.000,124.776 124.000 C 124.543 124.000,124.457 124.169,124.585 124.375 C 124.712 124.582,124.500 124.928,124.112 125.145 C 123.724 125.362,123.529 125.663,123.679 125.813 C 123.829 125.962,123.603 126.460,123.176 126.918 C 122.749 127.376,122.400 127.987,122.400 128.275 C 122.400 128.564,122.220 128.800,122.000 128.800 C 121.780 128.800,121.645 129.025,121.700 129.300 C 121.755 129.575,121.575 129.755,121.300 129.700 C 121.025 129.645,120.839 129.735,120.887 129.900 C 121.045 130.445,120.049 132.800,119.660 132.800 C 119.450 132.800,119.090 133.340,118.860 134.000 C 118.630 134.660,118.237 135.200,117.987 135.200 C 117.738 135.200,117.607 135.421,117.697 135.692 C 117.788 135.963,117.452 136.626,116.952 137.165 C 116.452 137.704,116.134 138.293,116.245 138.473 C 116.356 138.653,116.257 138.800,116.024 138.800 C 115.791 138.800,115.645 139.025,115.700 139.300 C 115.755 139.575,115.575 139.755,115.300 139.700 C 115.025 139.645,114.839 139.735,114.887 139.900 C 115.054 140.475,114.039 142.800,113.621 142.800 C 113.389 142.800,113.200 143.070,113.200 143.400 C 113.200 143.730,112.825 144.375,112.367 144.833 C 111.908 145.292,111.627 145.761,111.743 145.876 C 111.858 145.991,111.603 146.460,111.176 146.918 C 110.749 147.376,110.400 147.987,110.400 148.275 C 110.400 148.564,110.222 148.800,110.005 148.800 C 109.788 148.800,109.348 149.430,109.026 150.200 C 108.704 150.970,108.232 151.600,107.978 151.600 C 107.723 151.600,107.618 151.870,107.745 152.200 C 107.871 152.530,107.801 152.800,107.587 152.800 C 107.374 152.800,107.200 153.070,107.200 153.400 C 107.200 153.730,107.020 154.000,106.800 154.000 C 106.580 154.000,106.400 154.270,106.400 154.600 C 106.400 154.930,106.205 155.200,105.967 155.200 C 105.728 155.200,105.605 155.414,105.692 155.675 C 105.779 155.936,105.524 156.476,105.125 156.875 C 104.726 157.274,104.400 157.870,104.400 158.200 C 104.400 158.530,104.222 158.800,104.005 158.800 C 103.788 158.800,103.348 159.430,103.026 160.200 C 102.704 160.970,102.232 161.600,101.978 161.600 C 101.723 161.600,101.618 161.870,101.745 162.200 C 101.871 162.530,101.801 162.800,101.587 162.800 C 101.374 162.800,101.200 163.070,101.200 163.400 C 101.200 163.730,101.020 164.000,100.800 164.000 C 100.580 164.000,100.400 164.270,100.400 164.600 C 100.400 164.930,100.209 165.200,99.976 165.200 C 99.743 165.200,99.656 165.368,99.783 165.572 C 99.909 165.777,99.563 166.430,99.014 167.023 C 98.465 167.616,98.113 168.259,98.233 168.453 C 98.353 168.647,98.169 168.914,97.825 169.046 C 97.481 169.178,97.200 169.536,97.200 169.843 C 97.200 170.149,96.833 170.767,96.385 171.215 C 95.937 171.663,95.678 172.203,95.809 172.415 C 95.940 172.627,95.857 172.800,95.624 172.800 C 95.391 172.800,95.200 173.036,95.200 173.325 C 95.200 173.613,94.851 174.224,94.424 174.682 C 93.997 175.140,93.737 175.604,93.846 175.713 C 93.955 175.822,93.588 176.404,93.030 177.006 C 92.472 177.608,92.113 178.259,92.233 178.453 C 92.353 178.647,92.169 178.914,91.825 179.046 C 91.481 179.178,91.200 179.536,91.200 179.843 C 91.200 180.149,90.833 180.767,90.385 181.215 C 89.937 181.663,89.678 182.203,89.809 182.415 C 89.940 182.627,89.857 182.800,89.624 182.800 C 89.391 182.800,89.200 183.045,89.200 183.345 C 89.200 183.645,88.789 184.320,88.286 184.845 C 87.783 185.370,87.156 186.295,86.894 186.900 C 86.632 187.505,86.248 188.000,86.040 188.000 C 85.833 188.000,85.550 188.516,85.412 189.146 C 85.273 189.776,84.800 190.679,84.360 191.151 C 83.919 191.624,83.669 192.188,83.803 192.405 C 83.937 192.622,83.847 192.800,83.603 192.800 C 83.358 192.800,82.970 193.340,82.740 194.000 C 82.510 194.660,82.162 195.200,81.966 195.200 C 81.771 195.200,81.348 195.830,81.026 196.600 C 80.704 197.370,80.232 198.000,79.978 198.000 C 79.723 198.000,79.618 198.270,79.745 198.600 C 79.871 198.930,79.801 199.200,79.587 199.200 C 79.374 199.200,79.200 199.397,79.200 199.638 C 79.200 199.879,78.845 200.575,78.412 201.183 C 77.978 201.792,77.738 202.405,77.878 202.545 C 78.019 202.685,77.926 202.800,77.672 202.800 C 77.418 202.800,76.948 203.430,76.626 204.200 C 76.304 204.970,75.888 205.600,75.701 205.600 C 75.514 205.600,75.133 206.230,74.854 207.000 C 74.576 207.770,74.169 208.400,73.951 208.400 C 73.732 208.400,73.664 208.580,73.800 208.800 C 73.936 209.020,73.857 209.200,73.624 209.200 C 73.391 209.200,73.200 209.436,73.200 209.725 C 73.200 210.013,72.831 210.645,72.380 211.130 C 71.928 211.614,71.669 212.188,71.803 212.405 C 71.937 212.622,71.859 212.800,71.629 212.800 C 71.399 212.800,70.935 213.385,70.597 214.100 C 69.451 216.527,68.141 218.407,67.806 218.103 C 67.623 217.936,67.586 218.115,67.724 218.500 C 67.862 218.885,67.844 219.200,67.685 219.200 C 67.526 219.200,67.156 219.741,66.863 220.402 C 66.564 221.078,66.143 221.488,65.902 221.340 C 65.628 221.170,65.553 221.376,65.693 221.912 C 65.826 222.422,65.695 222.831,65.356 222.962 C 65.050 223.079,64.797 223.406,64.793 223.687 C 64.789 223.969,64.344 224.619,63.804 225.132 C 63.263 225.644,62.836 226.184,62.854 226.332 C 62.945 227.077,62.255 228.358,61.887 228.130 C 61.634 227.974,61.556 228.107,61.692 228.463 C 61.822 228.802,61.594 229.261,61.161 229.532 C 60.743 229.792,60.423 230.139,60.448 230.303 C 60.571 231.085,60.362 231.624,60.020 231.412 C 59.810 231.283,59.416 231.921,59.144 232.830 C 58.871 233.739,58.435 234.565,58.175 234.665 C 57.914 234.765,57.376 235.636,56.978 236.602 C 56.579 237.567,56.076 238.247,55.859 238.113 C 55.627 237.970,55.569 238.144,55.719 238.534 C 55.860 238.900,55.791 239.200,55.567 239.200 C 55.342 239.200,54.970 239.740,54.740 240.400 C 54.510 241.059,54.155 241.496,53.951 241.370 C 53.747 241.244,53.612 241.289,53.652 241.470 C 53.781 242.064,52.400 244.800,51.971 244.800 C 51.741 244.800,51.664 244.980,51.800 245.200 C 51.936 245.420,51.890 245.600,51.698 245.600 C 51.506 245.600,51.105 246.222,50.807 246.982 C 50.509 247.742,50.085 248.252,49.864 248.116 C 49.626 247.969,49.568 248.139,49.719 248.534 C 49.860 248.900,49.791 249.200,49.567 249.200 C 49.342 249.200,48.970 249.740,48.740 250.400 C 48.510 251.059,48.155 251.496,47.951 251.370 C 47.747 251.244,47.612 251.289,47.652 251.470 C 47.781 252.064,46.400 254.800,45.971 254.800 C 45.741 254.800,45.664 254.980,45.800 255.200 C 45.936 255.420,45.890 255.600,45.698 255.600 C 45.506 255.600,45.105 256.222,44.807 256.982 C 44.509 257.742,44.085 258.252,43.864 258.116 C 43.626 257.969,43.568 258.139,43.719 258.534 C 43.860 258.900,43.796 259.200,43.578 259.200 C 43.359 259.200,43.009 259.650,42.800 260.200 C 42.591 260.750,42.262 261.200,42.070 261.200 C 41.878 261.200,41.387 262.010,40.978 263.000 C 40.570 263.990,40.082 264.800,39.894 264.800 C 39.707 264.800,39.652 264.961,39.774 265.158 C 39.896 265.355,39.743 265.613,39.435 265.731 C 39.127 265.849,38.754 266.500,38.605 267.176 C 38.457 267.853,38.189 268.317,38.010 268.206 C 37.831 268.096,37.407 268.701,37.066 269.551 C 36.726 270.401,36.167 271.204,35.824 271.335 C 35.481 271.467,35.200 271.853,35.200 272.193 C 35.200 272.900,34.392 274.459,33.800 274.894 C 33.580 275.056,33.548 275.191,33.729 275.194 C 33.910 275.197,33.685 275.674,33.229 276.254 C 32.773 276.834,32.400 277.559,32.400 277.866 C 32.400 278.174,32.143 278.524,31.828 278.645 C 31.513 278.765,31.068 279.403,30.838 280.062 C 30.609 280.721,30.249 281.154,30.039 281.024 C 29.829 280.894,29.539 281.196,29.393 281.694 C 28.903 283.372,28.207 284.800,27.879 284.800 C 27.699 284.800,27.656 284.968,27.783 285.172 C 27.909 285.377,27.812 285.669,27.566 285.821 C 27.320 285.973,26.864 286.706,26.554 287.449 C 26.243 288.192,25.829 288.800,25.634 288.800 C 25.438 288.800,25.085 289.354,24.849 290.030 C 24.614 290.707,24.249 291.154,24.039 291.024 C 23.829 290.894,23.539 291.196,23.393 291.694 C 22.903 293.372,22.207 294.800,21.879 294.800 C 21.699 294.800,21.664 294.980,21.800 295.200 C 21.936 295.420,21.878 295.600,21.672 295.600 C 21.466 295.600,21.062 296.185,20.775 296.900 C 20.488 297.615,19.836 298.630,19.326 299.155 C 18.817 299.680,18.400 300.365,18.400 300.678 C 18.400 301.011,18.206 301.127,17.932 300.958 C 17.616 300.763,17.548 300.888,17.723 301.343 C 17.881 301.756,17.675 302.325,17.191 302.809 C 16.756 303.244,16.400 303.870,16.400 304.200 C 16.400 304.530,16.222 304.800,16.005 304.800 C 15.788 304.800,15.348 305.430,15.026 306.200 C 14.704 306.970,14.237 307.600,13.987 307.600 C 13.738 307.600,13.607 307.821,13.697 308.091 C 13.787 308.362,13.532 308.936,13.130 309.367 C 12.729 309.798,12.400 310.398,12.400 310.699 C 12.400 311.016,12.202 311.125,11.932 310.958 C 11.619 310.765,11.547 310.885,11.715 311.322 C 11.852 311.681,11.775 312.092,11.542 312.236 C 11.309 312.380,10.864 313.106,10.554 313.849 C 10.243 314.592,9.824 315.200,9.622 315.200 C 9.419 315.200,9.130 315.605,8.980 316.100 C 8.829 316.595,8.429 317.315,8.091 317.700 C 7.753 318.085,7.601 318.400,7.754 318.400 C 7.906 318.400,7.664 318.794,7.216 319.275 C 6.767 319.757,6.400 320.387,6.400 320.675 C 6.400 320.964,6.209 321.200,5.976 321.200 C 5.743 321.200,5.656 321.368,5.783 321.572 C 5.909 321.777,5.812 322.069,5.566 322.221 C 5.320 322.373,4.864 323.106,4.554 323.849 C 4.243 324.592,3.824 325.200,3.622 325.200 C 3.419 325.200,3.130 325.605,2.980 326.100 C 2.829 326.595,2.429 327.315,2.091 327.700 C 1.753 328.085,1.601 328.400,1.754 328.400 C 1.906 328.400,1.664 328.794,1.216 329.275 C -0.895 331.541,0.688 331.451,5.400 329.037 C 6.940 328.248,8.322 327.602,8.472 327.601 C 8.752 327.600,12.217 326.067,16.800 323.917 C 18.230 323.246,20.300 322.285,21.400 321.783 C 22.500 321.280,24.937 320.133,26.815 319.234 C 28.694 318.335,30.346 317.600,30.488 317.600 C 30.753 317.600,34.282 316.036,38.800 313.917 C 40.230 313.246,42.300 312.282,43.400 311.775 C 44.500 311.268,46.784 310.211,48.475 309.426 C 50.167 308.642,51.679 308.000,51.835 308.000 C 51.992 308.000,53.128 307.530,54.360 306.955 C 61.324 303.708,63.598 302.646,65.400 301.802 C 66.500 301.286,68.030 300.635,68.800 300.355 C 69.570 300.075,70.290 299.740,70.400 299.612 C 70.510 299.483,71.410 299.039,72.400 298.626 C 75.620 297.280,78.807 295.830,87.400 291.802 C 88.500 291.286,90.030 290.635,90.800 290.355 C 91.570 290.075,92.290 289.740,92.400 289.612 C 92.510 289.483,93.410 289.039,94.400 288.626 C 97.375 287.382,105.013 283.928,108.600 282.203 C 109.700 281.674,111.410 280.930,112.400 280.548 C 113.390 280.167,114.290 279.748,114.400 279.617 C 114.510 279.485,115.410 279.039,116.400 278.626 C 119.727 277.235,123.107 275.693,131.440 271.762 C 132.562 271.233,133.614 270.800,133.778 270.800 C 133.942 270.800,135.364 270.180,136.938 269.422 C 138.512 268.665,140.880 267.565,142.200 266.978 C 144.380 266.009,147.890 264.380,153.440 261.762 C 154.562 261.233,155.614 260.800,155.778 260.800 C 155.942 260.800,157.364 260.180,158.938 259.422 C 160.512 258.665,162.880 257.565,164.200 256.978 C 166.380 256.009,169.890 254.380,175.440 251.762 C 176.562 251.233,177.612 250.800,177.774 250.800 C 177.936 250.800,179.268 250.233,180.734 249.541 C 182.200 248.848,184.480 247.791,185.800 247.191 C 187.120 246.590,189.730 245.382,191.600 244.506 C 193.470 243.629,196.125 242.392,197.499 241.756 L 199.998 240.600 199.999 120.500 C 200.000 36.740,199.873 0.400,199.579 0.400 C 199.348 0.400,198.970 0.940,198.740 1.600 M0.400 370.397 C 0.400 370.835,0.742 371.407,1.160 371.668 C 1.578 371.929,1.829 372.381,1.717 372.671 C 1.606 372.962,1.723 373.200,1.978 373.200 C 2.232 373.200,2.704 373.830,3.026 374.600 C 3.348 375.370,3.709 376.000,3.829 376.000 C 3.949 376.000,3.931 375.775,3.789 375.500 C 3.647 375.225,3.902 375.450,4.356 376.000 C 4.811 376.550,5.186 377.219,5.191 377.486 C 5.196 377.753,5.560 378.165,6.000 378.400 C 6.440 378.635,6.800 379.097,6.800 379.427 C 6.800 379.756,7.069 380.128,7.398 380.254 C 7.726 380.381,7.887 380.659,7.754 380.874 C 7.622 381.088,7.893 381.530,8.357 381.855 C 8.820 382.180,9.200 382.686,9.200 382.980 C 9.200 383.274,9.470 383.618,9.800 383.745 C 10.130 383.871,10.400 384.224,10.400 384.529 C 10.400 384.834,10.837 385.555,11.371 386.131 C 11.905 386.708,12.670 387.769,13.071 388.490 C 13.472 389.210,14.115 390.035,14.500 390.323 C 14.885 390.610,15.200 391.105,15.200 391.423 C 15.200 391.740,15.384 392.000,15.610 392.000 C 15.835 392.000,16.193 392.455,16.404 393.010 C 16.615 393.566,17.049 394.121,17.369 394.243 C 17.688 394.366,17.861 394.698,17.752 394.981 C 17.643 395.265,17.834 395.604,18.177 395.736 C 18.520 395.867,18.800 396.244,18.800 396.573 C 18.800 396.903,19.137 397.352,19.548 397.572 C 19.959 397.792,20.588 398.588,20.945 399.341 C 21.302 400.094,22.135 401.288,22.796 401.996 C 23.456 402.703,23.897 403.443,23.775 403.641 C 23.653 403.838,23.748 404.000,23.986 404.000 C 24.225 404.000,24.591 404.450,24.800 405.000 C 25.009 405.550,25.356 406.000,25.571 406.000 C 25.786 406.000,26.280 406.675,26.668 407.500 C 27.057 408.325,27.966 409.614,28.690 410.364 C 29.413 411.114,29.929 411.804,29.836 411.897 C 29.743 411.990,30.020 412.457,30.452 412.933 C 32.102 414.755,32.301 415.046,33.009 416.681 C 33.410 417.606,33.887 418.270,34.069 418.157 C 34.252 418.044,34.577 418.413,34.791 418.976 C 35.005 419.539,35.375 420.000,35.614 420.000 C 35.852 420.000,35.951 420.156,35.833 420.347 C 35.715 420.537,35.975 421.015,36.409 421.409 C 36.844 421.802,37.200 422.266,37.200 422.440 C 37.200 422.613,37.819 423.431,38.575 424.256 C 39.331 425.082,39.872 425.883,39.777 426.037 C 39.682 426.190,39.874 426.419,40.202 426.546 C 40.531 426.672,40.800 427.040,40.800 427.365 C 40.800 427.689,41.127 428.190,41.526 428.477 C 42.195 428.959,42.882 430.130,42.965 430.932 C 42.984 431.115,43.315 431.495,43.700 431.776 C 44.085 432.058,44.400 432.483,44.400 432.721 C 44.400 432.960,44.800 433.435,45.289 433.777 C 45.778 434.120,46.053 434.400,45.901 434.400 C 45.749 434.400,46.069 435.055,46.612 435.856 C 47.155 436.657,47.600 437.477,47.600 437.679 C 47.600 437.882,47.760 437.948,47.956 437.827 C 48.152 437.706,48.610 438.235,48.975 439.004 C 49.339 439.772,49.814 440.400,50.029 440.400 C 50.244 440.400,50.591 440.850,50.800 441.400 C 51.009 441.950,51.375 442.400,51.614 442.400 C 51.852 442.400,51.927 442.594,51.780 442.832 C 51.633 443.070,51.893 443.530,52.357 443.855 C 52.820 444.180,53.200 444.686,53.200 444.980 C 53.200 445.274,53.470 445.618,53.800 445.745 C 54.130 445.871,54.400 446.224,54.400 446.529 C 54.400 446.834,54.837 447.555,55.371 448.131 C 55.905 448.708,56.670 449.769,57.071 450.490 C 57.472 451.210,58.115 452.035,58.500 452.323 C 58.885 452.610,59.200 453.105,59.200 453.423 C 59.200 453.740,59.384 454.000,59.610 454.000 C 59.835 454.000,60.193 454.455,60.404 455.010 C 60.615 455.566,61.049 456.121,61.369 456.243 C 61.688 456.366,61.861 456.698,61.752 456.981 C 61.643 457.265,61.834 457.604,62.177 457.736 C 62.520 457.867,62.800 458.244,62.800 458.573 C 62.800 458.903,63.147 459.357,63.570 459.584 C 63.994 459.811,64.655 460.709,65.039 461.579 C 65.423 462.450,65.886 463.070,66.069 462.958 C 66.251 462.845,66.400 463.023,66.400 463.354 C 66.400 463.684,66.780 464.220,67.243 464.545 C 67.707 464.870,67.967 465.330,67.820 465.568 C 67.673 465.806,67.748 466.000,67.986 466.000 C 68.225 466.000,68.591 466.450,68.800 467.000 C 69.009 467.550,69.356 468.000,69.571 468.000 C 69.786 468.000,70.264 468.636,70.633 469.413 C 71.002 470.190,71.820 471.379,72.452 472.055 C 73.083 472.732,73.600 473.492,73.600 473.746 C 73.600 474.000,73.960 474.432,74.400 474.707 C 74.840 474.982,75.200 475.475,75.200 475.803 C 75.200 476.132,75.376 476.400,75.590 476.400 C 75.805 476.400,76.349 477.210,76.800 478.200 C 77.251 479.190,77.800 480.000,78.020 480.000 C 78.240 480.000,78.591 480.450,78.800 481.000 C 79.009 481.550,79.375 482.000,79.614 482.000 C 79.852 482.000,79.954 482.151,79.840 482.336 C 79.726 482.520,80.249 483.285,81.003 484.036 C 81.758 484.786,82.380 485.597,82.387 485.838 C 82.394 486.079,82.756 486.598,83.191 486.991 C 83.625 487.385,83.896 487.844,83.793 488.012 C 83.689 488.179,83.874 488.419,84.202 488.546 C 84.531 488.672,84.800 489.040,84.800 489.365 C 84.800 489.689,85.123 490.190,85.518 490.477 C 85.913 490.765,86.552 491.675,86.937 492.500 C 87.322 493.325,87.809 494.000,88.019 494.000 C 88.228 494.000,88.400 494.260,88.400 494.577 C 88.400 494.895,88.800 495.435,89.289 495.777 C 89.778 496.120,90.039 496.400,89.869 496.400 C 89.698 496.400,90.018 497.001,90.578 497.735 C 91.138 498.470,91.462 499.205,91.298 499.369 C 91.134 499.533,91.241 499.607,91.535 499.533 C 91.829 499.460,92.411 500.021,92.828 500.780 C 93.244 501.539,93.859 502.313,94.193 502.500 C 94.527 502.687,94.800 503.106,94.800 503.432 C 94.800 503.758,95.085 504.135,95.434 504.268 C 95.870 504.436,95.925 504.599,95.610 504.794 C 95.311 504.979,95.507 505.309,96.176 505.748 C 96.739 506.117,97.200 506.684,97.200 507.009 C 97.200 507.334,97.373 507.600,97.584 507.600 C 97.796 507.600,98.424 508.545,98.980 509.700 C 99.536 510.855,100.000 511.530,100.011 511.200 C 100.023 510.869,100.300 511.094,100.629 511.700 C 100.957 512.305,101.410 512.800,101.636 512.800 C 101.862 512.800,101.927 512.994,101.780 513.232 C 101.633 513.470,101.893 513.930,102.357 514.255 C 102.820 514.580,103.200 515.105,103.200 515.423 C 103.200 515.740,103.384 516.000,103.610 516.000 C 103.835 516.000,104.193 516.455,104.404 517.010 C 104.615 517.566,105.060 518.125,105.392 518.252 C 105.724 518.380,105.908 518.625,105.802 518.797 C 105.696 518.969,105.877 519.332,106.204 519.604 C 106.532 519.876,106.800 520.340,106.800 520.635 C 106.800 520.930,107.137 521.352,107.548 521.572 C 107.959 521.792,108.598 522.609,108.967 523.386 C 109.336 524.164,109.809 524.800,110.019 524.800 C 110.228 524.800,110.400 525.060,110.400 525.377 C 110.400 525.695,110.780 526.220,111.243 526.545 C 111.707 526.870,111.978 527.312,111.846 527.526 C 111.713 527.741,111.874 528.019,112.202 528.146 C 112.531 528.272,112.800 528.644,112.800 528.973 C 112.800 529.303,113.175 529.773,113.634 530.018 C 114.093 530.264,114.368 530.566,114.245 530.689 C 114.121 530.812,114.932 532.057,116.045 533.456 C 117.158 534.855,117.923 536.000,117.745 536.000 C 117.568 536.000,117.822 536.280,118.311 536.623 C 118.800 536.965,119.200 537.505,119.200 537.823 C 119.200 538.140,119.372 538.400,119.581 538.400 C 119.791 538.400,120.278 539.075,120.663 539.900 C 121.048 540.725,121.687 541.635,122.082 541.923 C 122.477 542.210,122.800 542.696,122.800 543.003 C 122.800 543.309,123.115 543.744,123.500 543.968 C 123.885 544.192,124.067 544.381,123.904 544.388 C 123.575 544.401,124.615 545.767,125.700 546.746 C 126.085 547.094,126.400 547.580,126.400 547.827 C 126.400 548.074,126.748 548.591,127.173 548.976 C 127.618 549.378,127.844 549.942,127.705 550.303 C 127.546 550.718,127.623 550.833,127.933 550.642 C 128.222 550.463,128.551 550.744,128.791 551.376 C 129.005 551.939,129.356 552.400,129.571 552.400 C 129.786 552.400,130.273 553.075,130.652 553.900 C 131.031 554.725,131.625 555.693,131.971 556.051 C 133.289 557.415,133.926 558.341,133.700 558.566 C 133.572 558.695,133.681 558.800,133.943 558.800 C 134.205 558.800,134.591 559.250,134.800 559.800 C 135.009 560.350,135.365 560.800,135.592 560.800 C 135.818 560.800,136.393 561.692,136.869 562.782 C 137.345 563.872,137.884 564.671,138.068 564.558 C 138.251 564.445,138.577 564.813,138.791 565.376 C 139.005 565.939,139.375 566.400,139.614 566.400 C 139.852 566.400,139.927 566.594,139.780 566.832 C 139.633 567.070,139.893 567.530,140.357 567.855 C 140.820 568.180,141.200 568.806,141.200 569.246 C 141.200 569.687,141.373 569.940,141.585 569.809 C 141.796 569.679,142.340 570.298,142.793 571.186 C 143.246 572.074,143.797 572.800,144.018 572.800 C 144.239 572.800,144.591 573.250,144.800 573.800 C 145.009 574.350,145.410 574.803,145.690 574.806 C 146.092 574.811,146.089 574.882,145.676 575.144 C 145.281 575.395,145.404 575.642,146.176 576.148 C 146.739 576.517,147.200 577.065,147.200 577.366 C 147.200 577.668,147.470 578.018,147.800 578.145 C 148.130 578.271,148.400 578.640,148.400 578.965 C 148.400 579.289,148.800 579.835,149.289 580.177 C 149.778 580.520,150.035 580.800,149.860 580.800 C 149.685 580.800,149.915 581.274,150.371 581.854 C 150.827 582.434,151.200 583.154,151.200 583.454 C 151.200 583.754,151.399 583.955,151.643 583.900 C 151.886 583.845,152.444 584.475,152.882 585.300 C 153.320 586.125,153.841 586.800,154.039 586.800 C 154.238 586.800,154.400 587.060,154.400 587.377 C 154.400 587.695,154.780 588.220,155.243 588.545 C 155.707 588.870,155.967 589.330,155.820 589.568 C 155.673 589.806,155.748 590.000,155.986 590.000 C 156.225 590.000,156.591 590.450,156.800 591.000 C 157.009 591.550,157.360 592.000,157.580 592.000 C 157.800 592.000,158.279 592.585,158.646 593.300 C 159.013 594.015,159.738 595.110,160.259 595.734 C 160.779 596.357,161.105 597.030,160.982 597.229 C 160.859 597.428,161.069 597.472,161.449 597.326 C 161.954 597.132,162.077 597.221,161.909 597.659 C 161.777 598.003,162.003 598.459,162.440 598.732 C 162.858 598.993,163.200 599.475,163.200 599.803 C 163.200 600.132,163.372 600.400,163.581 600.400 C 163.791 600.400,164.276 601.075,164.659 601.900 C 165.041 602.725,165.725 603.788,166.177 604.262 C 167.409 605.553,168.058 606.400,167.816 606.400 C 167.621 606.400,167.931 606.777,169.819 608.834 C 170.138 609.182,170.400 609.667,170.400 609.911 C 170.400 610.155,170.764 610.610,171.209 610.921 C 171.757 611.305,171.929 611.720,171.741 612.210 C 171.550 612.707,171.610 612.841,171.933 612.642 C 172.222 612.463,172.551 612.744,172.791 613.376 C 173.005 613.939,173.356 614.400,173.571 614.400 C 173.786 614.400,174.277 615.075,174.662 615.900 C 175.047 616.725,175.862 617.940,176.474 618.600 C 177.087 619.260,177.603 619.980,177.622 620.200 C 177.641 620.420,177.914 620.744,178.228 620.920 C 178.543 621.096,178.800 621.494,178.800 621.806 C 178.800 622.117,179.121 622.543,179.512 622.753 C 179.904 622.963,180.478 623.779,180.787 624.567 C 181.096 625.355,181.506 626.000,181.698 626.000 C 181.890 626.000,181.919 626.208,181.762 626.462 C 181.585 626.748,181.652 626.815,181.939 626.638 C 182.220 626.464,182.554 626.753,182.791 627.376 C 183.005 627.939,183.395 628.400,183.657 628.400 C 183.919 628.400,184.020 628.514,183.881 628.653 C 183.742 628.791,184.154 629.542,184.795 630.321 C 185.437 631.100,185.853 631.914,185.719 632.130 C 185.586 632.347,185.664 632.407,185.894 632.265 C 186.124 632.123,186.610 632.635,186.975 633.404 C 187.339 634.172,187.814 634.800,188.029 634.800 C 188.244 634.800,188.591 635.250,188.800 635.800 C 189.009 636.350,189.375 636.800,189.614 636.800 C 189.852 636.800,189.927 636.994,189.780 637.232 C 189.633 637.470,189.896 637.932,190.363 638.259 C 190.831 638.587,191.115 639.013,190.995 639.207 C 190.876 639.401,191.143 639.755,191.589 639.994 C 192.035 640.233,192.400 640.690,192.400 641.011 C 192.400 641.331,192.742 641.807,193.160 642.068 C 193.594 642.339,193.822 642.798,193.692 643.137 C 193.556 643.492,193.634 643.626,193.886 643.471 C 194.119 643.327,194.528 643.744,194.802 644.405 C 195.074 645.062,195.485 645.600,195.715 645.600 C 195.945 645.600,196.014 645.719,195.869 645.864 C 195.724 646.009,195.964 646.380,196.403 646.687 C 196.841 646.994,197.200 647.496,197.200 647.803 C 197.200 648.109,197.425 648.504,197.700 648.680 C 197.975 648.856,198.393 649.349,198.629 649.776 C 198.864 650.203,199.269 650.623,199.529 650.710 C 200.154 650.918,200.219 487.782,199.593 487.396 C 199.370 487.258,199.291 486.977,199.417 486.772 C 199.544 486.568,199.457 486.377,199.224 486.350 C 198.436 486.257,198.203 486.181,196.900 485.592 C 196.185 485.269,195.600 484.858,195.600 484.679 C 195.600 484.499,195.439 484.452,195.242 484.574 C 195.045 484.696,194.787 484.543,194.669 484.235 C 194.551 483.927,193.902 483.554,193.227 483.406 C 192.552 483.258,192.000 482.964,192.000 482.754 C 192.000 482.544,191.235 482.007,190.300 481.561 C 187.833 480.386,186.323 479.492,185.287 478.592 C 184.785 478.157,184.245 477.776,184.087 477.746 C 182.981 477.539,182.000 477.041,182.000 476.687 C 182.000 476.456,181.881 476.386,181.736 476.531 C 181.591 476.676,181.218 476.433,180.909 475.991 C 180.599 475.548,180.192 475.281,180.005 475.397 C 179.818 475.513,179.381 475.324,179.035 474.978 C 178.689 474.632,178.225 474.461,178.003 474.598 C 177.781 474.735,177.600 474.659,177.600 474.429 C 177.600 474.199,176.970 473.748,176.200 473.426 C 175.430 473.104,174.800 472.691,174.800 472.508 C 174.800 472.325,174.305 471.949,173.700 471.673 C 173.095 471.396,172.060 470.855,171.400 470.469 C 168.696 468.889,168.187 468.634,167.900 468.715 C 167.735 468.762,167.600 468.620,167.600 468.400 C 167.600 468.180,167.364 468.000,167.075 468.000 C 166.787 468.000,166.145 467.622,165.649 467.160 C 165.153 466.698,164.654 466.413,164.540 466.526 C 164.426 466.640,163.988 466.388,163.567 465.967 C 163.145 465.545,162.530 465.200,162.200 465.200 C 161.870 465.200,161.600 465.022,161.600 464.805 C 161.600 464.588,160.970 464.148,160.200 463.826 C 159.430 463.504,158.800 463.032,158.800 462.778 C 158.800 462.523,158.530 462.418,158.200 462.545 C 157.870 462.671,157.600 462.618,157.600 462.427 C 157.600 462.235,157.060 461.890,156.400 461.660 C 155.740 461.430,155.198 461.097,155.196 460.921 C 155.194 460.744,154.395 460.250,153.421 459.821 C 152.447 459.393,151.758 458.868,151.891 458.653 C 152.031 458.426,151.848 458.373,151.450 458.525 C 151.036 458.684,150.684 458.564,150.551 458.218 C 150.431 457.905,149.808 457.534,149.167 457.393 C 148.525 457.252,148.000 456.964,148.000 456.754 C 148.000 456.544,147.235 456.007,146.300 455.561 C 143.337 454.149,141.794 453.211,142.000 452.947 C 142.110 452.807,141.750 452.507,141.200 452.281 C 140.650 452.056,140.110 451.831,140.000 451.782 C 139.890 451.733,139.395 451.561,138.900 451.400 C 138.405 451.238,138.000 450.937,138.000 450.730 C 138.000 450.522,137.820 450.464,137.600 450.600 C 137.380 450.736,137.200 450.701,137.200 450.521 C 137.200 450.342,136.659 449.956,135.998 449.663 C 135.336 449.370,134.891 448.976,135.008 448.786 C 135.126 448.597,134.871 448.509,134.442 448.592 C 134.014 448.674,133.565 448.485,133.444 448.171 C 133.324 447.857,132.949 447.600,132.613 447.600 C 132.276 447.600,131.670 447.285,131.266 446.900 C 130.383 446.057,128.792 445.097,126.500 444.024 C 125.565 443.587,124.800 443.023,124.800 442.771 C 124.800 442.520,124.530 442.418,124.200 442.545 C 123.870 442.671,123.600 442.622,123.600 442.436 C 123.600 442.250,123.062 441.874,122.405 441.602 C 121.748 441.330,121.320 440.929,121.455 440.711 C 121.605 440.468,121.371 440.419,120.850 440.584 C 120.339 440.746,120.000 440.680,120.000 440.418 C 120.000 440.179,119.505 439.764,118.900 439.496 C 118.295 439.229,117.620 438.810,117.400 438.567 C 117.180 438.323,116.370 437.884,115.600 437.592 C 114.830 437.300,113.878 436.732,113.484 436.331 C 113.091 435.929,112.500 435.600,112.172 435.600 C 111.844 435.600,111.480 435.353,111.364 435.051 C 111.248 434.749,110.354 434.172,109.377 433.769 C 108.399 433.366,107.600 432.882,107.600 432.694 C 107.600 432.507,107.439 432.452,107.242 432.574 C 107.045 432.696,106.787 432.543,106.669 432.235 C 106.551 431.927,105.902 431.554,105.227 431.406 C 104.552 431.258,104.000 430.960,104.000 430.745 C 104.000 430.529,103.820 430.464,103.600 430.600 C 103.380 430.736,103.200 430.655,103.200 430.420 C 103.200 430.186,102.480 429.705,101.600 429.353 C 100.720 429.001,100.000 428.570,100.000 428.396 C 100.000 428.221,99.460 427.890,98.800 427.660 C 98.140 427.430,97.600 427.042,97.600 426.797 C 97.600 426.553,97.439 426.452,97.242 426.574 C 97.045 426.696,96.780 426.525,96.653 426.194 C 96.526 425.863,96.282 425.614,96.111 425.640 C 95.355 425.754,94.033 425.070,94.270 424.687 C 94.433 424.423,94.280 424.360,93.866 424.519 C 93.500 424.660,93.200 424.601,93.200 424.387 C 93.200 424.174,93.003 424.000,92.762 424.000 C 92.521 424.000,91.825 423.645,91.217 423.212 C 90.608 422.778,89.995 422.538,89.855 422.678 C 89.715 422.819,89.600 422.714,89.600 422.446 C 89.600 422.178,89.060 421.770,88.400 421.540 C 87.740 421.310,87.200 420.962,87.200 420.766 C 87.200 420.571,86.570 420.148,85.800 419.826 C 85.030 419.504,84.400 419.032,84.400 418.778 C 84.400 418.523,84.142 418.414,83.826 418.535 C 83.510 418.656,83.195 418.630,83.126 418.478 C 82.993 418.183,81.687 417.398,78.900 415.934 C 77.965 415.442,77.200 414.902,77.200 414.733 C 77.200 414.564,76.930 414.529,76.600 414.655 C 76.270 414.782,76.000 414.677,76.000 414.422 C 76.000 414.168,75.370 413.696,74.600 413.374 C 73.830 413.052,73.200 412.648,73.200 412.475 C 73.200 412.302,72.525 411.921,71.700 411.629 C 70.875 411.336,69.878 410.760,69.484 410.348 C 69.091 409.937,68.565 409.600,68.316 409.600 C 68.067 409.600,67.579 409.344,67.231 409.032 C 66.884 408.719,65.655 407.989,64.500 407.411 C 63.345 406.832,62.400 406.202,62.400 406.011 C 62.400 405.820,61.860 405.545,61.200 405.400 C 60.540 405.255,60.000 404.960,60.000 404.745 C 60.000 404.529,59.820 404.464,59.600 404.600 C 59.380 404.736,59.200 404.659,59.200 404.429 C 59.200 404.199,58.615 403.729,57.900 403.384 C 55.838 402.390,54.001 401.322,53.272 400.695 C 52.903 400.377,52.015 399.866,51.300 399.561 C 50.585 399.255,50.000 398.858,50.000 398.679 C 50.000 398.499,49.820 398.464,49.600 398.600 C 49.380 398.736,49.200 398.657,49.200 398.424 C 49.200 398.191,49.003 398.000,48.762 398.000 C 48.521 398.000,47.825 397.645,47.217 397.212 C 46.608 396.778,45.995 396.538,45.855 396.678 C 45.715 396.819,45.600 396.714,45.600 396.446 C 45.600 396.178,45.060 395.770,44.400 395.540 C 43.740 395.310,43.200 394.962,43.200 394.766 C 43.200 394.571,42.570 394.148,41.800 393.826 C 41.030 393.504,40.400 393.032,40.400 392.778 C 40.400 392.523,40.130 392.418,39.800 392.545 C 39.470 392.671,39.200 392.601,39.200 392.387 C 39.200 392.174,38.930 392.000,38.600 392.000 C 38.270 392.000,37.674 391.674,37.275 391.275 C 36.876 390.876,36.336 390.621,36.075 390.708 C 35.814 390.795,35.600 390.672,35.600 390.433 C 35.600 390.195,35.364 390.000,35.075 390.000 C 34.787 390.000,34.176 389.651,33.718 389.224 C 33.260 388.797,32.791 388.542,32.676 388.657 C 32.561 388.773,32.092 388.492,31.633 388.033 C 31.175 387.575,30.519 387.200,30.176 387.200 C 29.833 387.200,29.650 387.043,29.768 386.851 C 29.887 386.659,29.132 386.184,28.092 385.794 C 27.051 385.404,25.878 384.751,25.484 384.342 C 25.091 383.934,24.528 383.600,24.233 383.600 C 23.939 383.600,23.397 383.195,23.030 382.700 C 22.663 382.205,22.472 382.025,22.605 382.300 C 22.963 383.039,22.482 382.908,21.508 382.000 C 21.036 381.560,20.413 381.200,20.125 381.200 C 19.836 381.200,19.600 381.009,19.600 380.776 C 19.600 380.543,19.419 380.465,19.197 380.602 C 18.976 380.739,18.691 380.580,18.564 380.250 C 18.437 379.919,17.807 379.533,17.163 379.392 C 16.462 379.238,16.101 378.960,16.262 378.699 C 16.434 378.422,16.290 378.357,15.866 378.519 C 15.500 378.660,15.200 378.599,15.200 378.384 C 15.200 378.169,14.480 377.705,13.600 377.353 C 12.720 377.001,12.000 376.570,12.000 376.396 C 12.000 376.221,11.460 375.890,10.800 375.660 C 10.140 375.430,9.600 375.042,9.600 374.797 C 9.600 374.553,9.420 374.464,9.200 374.600 C 8.980 374.736,8.800 374.637,8.800 374.381 C 8.800 374.124,8.545 374.012,8.233 374.132 C 7.921 374.252,7.567 374.091,7.446 373.775 C 7.324 373.459,6.949 373.200,6.613 373.200 C 6.276 373.200,6.000 373.009,6.000 372.776 C 6.000 372.543,5.820 372.464,5.600 372.600 C 5.380 372.736,5.198 372.702,5.195 372.524 C 5.193 372.346,4.428 371.843,3.495 371.406 C 2.563 370.970,1.656 370.385,1.480 370.106 C 0.996 369.340,0.400 369.500,0.400 370.397 " stroke="none" fill="#8c94b4" fill-rule="evenodd"></path><path id="path1" d="M200.000 344.962 L 200.000 449.191 200.990 449.109 C 201.535 449.064,202.069 448.796,202.178 448.514 C 202.286 448.231,202.651 448.000,202.987 448.000 C 203.324 448.000,203.600 447.809,203.600 447.576 C 203.600 447.343,203.780 447.264,204.000 447.400 C 204.220 447.536,204.400 447.490,204.400 447.298 C 204.400 446.918,207.211 445.410,207.700 445.528 C 207.865 445.568,208.000 445.416,208.000 445.190 C 208.000 444.965,208.440 444.613,208.978 444.408 C 209.516 444.204,210.821 443.440,211.878 442.712 C 212.935 441.984,214.520 441.031,215.400 440.594 C 216.280 440.157,217.132 439.620,217.294 439.400 C 217.490 439.133,217.592 439.133,217.600 439.400 C 217.607 439.630,217.738 439.611,217.906 439.356 C 218.261 438.820,220.878 437.402,221.300 437.518 C 221.465 437.563,221.600 437.416,221.600 437.191 C 221.600 436.967,222.095 436.563,222.700 436.294 C 223.305 436.026,223.980 435.667,224.200 435.497 C 225.645 434.383,227.571 433.305,227.767 433.501 C 227.895 433.629,228.000 433.550,228.000 433.327 C 228.000 433.103,228.810 432.587,229.800 432.178 C 230.790 431.770,231.600 431.315,231.600 431.167 C 231.600 431.018,232.140 430.673,232.800 430.400 C 233.460 430.127,234.000 429.734,234.000 429.528 C 234.000 429.322,234.180 429.264,234.400 429.400 C 234.620 429.536,234.800 429.478,234.800 429.272 C 234.800 429.066,235.385 428.661,236.100 428.372 C 236.815 428.083,237.544 427.611,237.720 427.323 C 237.896 427.036,238.276 426.800,238.564 426.800 C 238.852 426.800,239.733 426.363,240.520 425.828 C 241.489 425.171,242.014 425.009,242.145 425.328 C 242.250 425.588,242.351 425.485,242.368 425.100 C 242.386 424.715,242.597 424.400,242.838 424.400 C 243.079 424.400,243.799 424.028,244.438 423.573 C 245.077 423.118,245.605 422.893,245.612 423.073 C 245.619 423.253,245.808 423.085,246.032 422.700 C 246.256 422.315,246.701 422.000,247.020 422.000 C 247.339 422.000,247.600 421.809,247.600 421.576 C 247.600 421.343,247.780 421.264,248.000 421.400 C 248.220 421.536,248.400 421.490,248.400 421.298 C 248.400 420.918,251.211 419.410,251.700 419.528 C 251.865 419.568,252.000 419.416,252.000 419.191 C 252.000 418.967,252.495 418.563,253.100 418.295 C 254.247 417.787,256.637 416.317,257.500 415.590 C 257.775 415.358,258.000 415.288,258.000 415.433 C 258.000 415.579,258.242 415.497,258.537 415.252 C 258.832 415.007,259.192 414.925,259.337 415.070 C 259.482 415.215,259.600 415.114,259.600 414.846 C 259.600 414.578,260.140 414.170,260.800 413.940 C 261.460 413.710,262.000 413.340,262.000 413.118 C 262.000 412.896,262.279 412.822,262.621 412.953 C 262.962 413.084,263.148 413.039,263.033 412.854 C 262.824 412.516,264.737 411.399,265.300 411.530 C 265.465 411.569,265.600 411.416,265.600 411.190 C 265.600 410.965,266.040 410.613,266.578 410.408 C 267.116 410.204,268.448 409.410,269.537 408.644 C 270.627 407.878,271.627 407.360,271.759 407.492 C 271.892 407.625,272.000 407.535,272.000 407.294 C 272.000 407.052,272.375 406.735,272.834 406.589 C 273.873 406.260,277.752 403.908,277.934 403.498 C 278.008 403.331,278.226 403.293,278.420 403.412 C 278.613 403.531,279.137 403.263,279.585 402.815 C 280.033 402.367,280.670 402.000,281.000 402.000 C 281.330 402.000,281.600 401.828,281.600 401.619 C 281.600 401.409,282.387 400.889,283.348 400.464 C 284.310 400.039,285.222 399.487,285.376 399.239 C 285.530 398.990,285.823 398.891,286.028 399.017 C 286.232 399.144,286.400 399.057,286.400 398.824 C 286.400 398.591,286.597 398.400,286.838 398.400 C 287.079 398.400,287.799 398.028,288.438 397.573 C 289.077 397.118,289.605 396.893,289.612 397.073 C 289.619 397.253,289.808 397.085,290.032 396.700 C 290.256 396.315,290.701 396.000,291.020 396.000 C 291.339 396.000,291.600 395.809,291.600 395.576 C 291.600 395.343,291.780 395.264,292.000 395.400 C 292.220 395.536,292.400 395.490,292.400 395.298 C 292.400 395.105,292.985 394.634,293.700 394.250 C 294.415 393.867,295.900 393.036,297.000 392.404 C 298.100 391.773,299.765 390.864,300.700 390.384 C 301.635 389.904,302.400 389.332,302.400 389.113 C 302.400 388.894,302.679 388.822,303.021 388.953 C 303.362 389.084,303.541 389.027,303.417 388.828 C 303.294 388.628,303.824 388.256,304.596 388.001 C 305.368 387.746,306.000 387.363,306.000 387.148 C 306.000 386.934,306.540 386.570,307.200 386.340 C 307.860 386.110,308.400 385.740,308.400 385.518 C 308.400 385.296,308.670 385.218,309.000 385.345 C 309.330 385.471,309.600 385.392,309.600 385.168 C 309.600 384.944,310.095 384.543,310.700 384.276 C 311.305 384.009,312.561 383.298,313.492 382.695 C 314.423 382.093,315.368 381.600,315.592 381.600 C 315.816 381.600,316.000 381.438,316.000 381.240 C 316.000 381.041,316.809 380.546,317.799 380.140 C 318.788 379.733,319.598 379.287,319.599 379.149 C 319.599 379.010,320.140 378.673,320.800 378.400 C 321.460 378.127,322.000 377.750,322.000 377.564 C 322.000 377.378,322.270 377.329,322.600 377.455 C 322.930 377.582,323.200 377.504,323.200 377.282 C 323.200 376.888,325.467 375.328,326.942 374.707 C 327.350 374.535,328.180 374.041,328.787 373.609 C 329.394 373.177,330.005 372.938,330.145 373.078 C 330.285 373.219,330.400 373.123,330.400 372.867 C 330.400 372.610,330.597 372.400,330.838 372.400 C 331.079 372.400,331.799 372.028,332.438 371.573 C 333.077 371.118,333.605 370.893,333.612 371.073 C 333.619 371.253,333.808 371.085,334.032 370.700 C 334.256 370.315,334.701 370.000,335.020 370.000 C 335.339 370.000,335.600 369.790,335.600 369.533 C 335.600 369.277,335.709 369.176,335.843 369.309 C 335.976 369.443,336.291 369.380,336.543 369.170 C 337.464 368.402,340.045 366.800,340.362 366.800 C 340.541 366.800,341.329 366.365,342.112 365.834 C 342.894 365.303,343.640 364.973,343.767 365.101 C 343.895 365.229,344.000 365.145,344.000 364.915 C 344.000 364.685,344.540 364.273,345.200 364.000 C 345.860 363.727,346.400 363.382,346.400 363.233 C 346.400 363.085,347.210 362.630,348.200 362.222 C 349.190 361.813,350.000 361.329,350.000 361.145 C 350.000 360.835,352.504 359.614,353.063 359.652 C 353.199 359.661,353.437 359.465,353.590 359.215 C 353.744 358.966,354.424 358.456,355.101 358.081 C 355.778 357.707,357.100 356.974,358.041 356.454 C 358.981 355.933,359.988 355.269,360.279 354.978 C 360.570 354.687,361.437 354.222,362.204 353.944 C 362.972 353.666,363.600 353.317,363.600 353.168 C 363.600 353.019,364.140 352.673,364.800 352.400 C 365.460 352.127,366.000 351.715,366.000 351.485 C 366.000 351.255,366.114 351.181,366.254 351.320 C 366.393 351.460,366.957 351.220,367.508 350.787 C 368.058 350.354,368.745 350.000,369.034 350.000 C 369.323 350.000,369.704 349.772,369.880 349.494 C 370.056 349.215,370.963 348.630,371.895 348.194 C 372.828 347.757,373.593 347.254,373.595 347.076 C 373.598 346.898,373.780 346.864,374.000 347.000 C 374.220 347.136,374.400 347.057,374.400 346.824 C 374.400 346.591,374.597 346.400,374.838 346.400 C 375.079 346.400,375.799 346.028,376.438 345.573 C 377.077 345.118,377.605 344.893,377.612 345.073 C 377.619 345.253,377.808 345.085,378.032 344.700 C 378.256 344.315,378.701 344.000,379.020 344.000 C 379.339 344.000,379.600 343.820,379.600 343.600 C 379.600 343.380,379.735 343.243,379.900 343.295 C 380.065 343.347,381.209 342.717,382.441 341.895 C 383.674 341.073,384.865 340.400,385.087 340.400 C 385.310 340.400,385.942 340.046,386.492 339.613 C 387.043 339.180,387.607 338.940,387.746 339.080 C 387.886 339.219,388.000 339.145,388.000 338.915 C 388.000 338.685,388.540 338.273,389.200 338.000 C 389.860 337.727,390.400 337.330,390.400 337.118 C 390.400 336.906,390.609 336.803,390.864 336.888 C 391.120 336.973,391.772 336.632,392.315 336.129 C 392.857 335.626,393.439 335.301,393.608 335.405 C 393.778 335.510,394.006 335.362,394.116 335.076 C 394.225 334.790,395.054 334.312,395.957 334.014 C 396.861 333.716,397.600 333.327,397.600 333.149 C 397.600 332.971,398.074 332.577,398.654 332.273 L 399.708 331.721 398.765 331.061 C 398.246 330.697,397.592 330.400,397.311 330.400 C 397.030 330.400,395.945 329.955,394.900 329.410 C 393.855 328.866,391.830 327.898,390.400 327.260 C 388.970 326.623,385.910 325.258,383.600 324.228 C 381.290 323.199,378.500 321.931,377.400 321.412 C 376.300 320.893,374.410 320.021,373.200 319.474 C 371.990 318.927,369.830 317.945,368.400 317.290 C 366.970 316.636,363.910 315.258,361.600 314.228 C 359.290 313.199,356.500 311.931,355.400 311.412 C 354.300 310.893,352.410 310.021,351.200 309.474 C 349.990 308.927,347.830 307.945,346.400 307.290 C 344.970 306.636,341.910 305.258,339.600 304.228 C 337.290 303.199,334.410 301.889,333.200 301.317 C 330.650 300.113,330.184 299.901,320.600 295.592 C 316.640 293.811,312.500 291.938,311.400 291.429 C 308.576 290.122,306.763 289.297,298.600 285.608 C 294.640 283.819,290.500 281.938,289.400 281.429 C 285.683 279.709,283.814 278.856,279.200 276.776 C 271.048 273.100,269.436 272.370,267.400 271.428 C 262.754 269.280,257.762 267.016,250.000 263.536 C 247.542 262.434,245.776 261.625,241.600 259.686 C 239.867 258.881,233.422 255.967,228.000 253.536 C 225.556 252.440,223.925 251.693,219.600 249.686 C 218.610 249.227,215.550 247.837,212.800 246.597 C 210.050 245.357,207.080 244.005,206.200 243.593 C 205.320 243.181,203.700 242.438,202.600 241.942 C 201.500 241.447,200.465 240.972,200.300 240.887 C 200.135 240.803,200.000 287.636,200.000 344.962 " stroke="none" fill="#444c74" fill-rule="evenodd"></path><path id="path2" d="M199.901 120.421 L 200.003 240.740 197.701 241.814 C 196.436 242.405,193.960 243.576,192.200 244.415 C 190.440 245.255,188.325 246.171,187.500 246.451 C 186.675 246.731,186.000 247.085,186.000 247.237 C 186.000 247.389,185.550 247.626,185.000 247.764 C 184.450 247.902,184.000 248.202,184.000 248.431 C 184.000 248.660,183.806 248.727,183.568 248.580 C 183.330 248.433,182.025 248.857,180.668 249.522 C 179.311 250.186,177.120 251.216,175.800 251.810 C 174.480 252.403,171.960 253.576,170.200 254.415 C 168.440 255.255,166.325 256.171,165.500 256.451 C 164.675 256.731,164.000 257.085,164.000 257.237 C 164.000 257.389,163.505 257.634,162.900 257.781 C 162.295 257.928,160.540 258.650,159.000 259.384 C 157.460 260.119,155.120 261.208,153.800 261.804 C 152.480 262.401,149.960 263.576,148.200 264.415 C 146.440 265.255,144.325 266.171,143.500 266.451 C 142.675 266.731,142.000 267.085,142.000 267.237 C 142.000 267.389,141.505 267.634,140.900 267.781 C 140.295 267.928,138.540 268.650,137.000 269.384 C 135.460 270.119,133.120 271.208,131.800 271.804 C 130.480 272.401,127.960 273.576,126.200 274.415 C 124.440 275.255,122.325 276.171,121.500 276.451 C 120.675 276.731,120.000 277.085,120.000 277.237 C 120.000 277.389,119.505 277.634,118.900 277.781 C 118.295 277.928,116.540 278.652,115.000 279.389 C 113.460 280.126,110.940 281.304,109.400 282.006 C 107.860 282.709,105.340 283.880,103.800 284.608 C 102.260 285.337,100.325 286.164,99.500 286.447 C 98.675 286.730,98.000 287.085,98.000 287.237 C 98.000 287.389,97.505 287.634,96.900 287.781 C 96.295 287.928,94.540 288.650,93.000 289.384 C 91.460 290.119,89.120 291.208,87.800 291.804 C 86.480 292.401,83.960 293.576,82.200 294.415 C 80.440 295.255,78.325 296.171,77.500 296.451 C 76.675 296.731,76.000 297.085,76.000 297.237 C 76.000 297.389,75.505 297.634,74.900 297.781 C 74.295 297.928,72.540 298.650,71.000 299.384 C 69.460 300.119,67.120 301.208,65.800 301.804 C 64.480 302.401,61.960 303.576,60.200 304.415 C 58.440 305.255,56.325 306.171,55.500 306.451 C 54.675 306.731,54.000 307.085,54.000 307.237 C 54.000 307.389,53.505 307.634,52.900 307.781 C 52.295 307.928,50.540 308.650,49.000 309.384 C 47.460 310.119,45.120 311.208,43.800 311.804 C 42.480 312.401,39.960 313.576,38.200 314.415 C 36.440 315.255,34.325 316.171,33.500 316.451 C 32.675 316.731,32.000 317.085,32.000 317.237 C 32.000 317.389,31.505 317.634,30.900 317.781 C 30.295 317.928,28.540 318.650,27.000 319.384 C 25.460 320.119,23.120 321.208,21.800 321.804 C 20.480 322.401,17.960 323.576,16.200 324.415 C 14.440 325.255,12.325 326.171,11.500 326.451 C 10.675 326.731,10.000 327.085,10.000 327.237 C 10.000 327.389,9.505 327.634,8.900 327.781 C 8.295 327.928,6.501 328.687,4.912 329.466 C 3.324 330.245,1.569 330.909,1.013 330.942 C 0.079 330.995,-0.502 332.000,0.400 332.000 C 0.620 332.000,0.800 332.270,0.800 332.600 C 0.800 332.930,1.138 333.200,1.551 333.200 C 1.964 333.200,2.526 333.470,2.800 333.800 C 3.074 334.130,3.524 334.400,3.800 334.400 C 4.076 334.400,4.502 334.640,4.745 334.934 C 4.989 335.228,5.905 335.705,6.781 335.994 C 7.657 336.283,8.291 336.653,8.189 336.817 C 8.088 336.981,8.679 337.387,9.503 337.718 C 10.326 338.050,11.433 338.699,11.961 339.161 C 12.490 339.622,13.249 340.000,13.647 340.000 C 14.046 340.000,14.565 340.360,14.800 340.800 C 15.035 341.240,15.494 341.600,15.820 341.600 C 16.415 341.600,18.029 342.384,18.400 342.853 C 18.686 343.215,21.964 345.122,23.500 345.820 C 24.215 346.145,24.800 346.576,24.800 346.778 C 24.800 346.981,25.205 347.270,25.700 347.420 C 26.195 347.571,26.915 347.971,27.300 348.309 C 27.685 348.647,28.000 348.808,28.000 348.666 C 28.000 348.524,28.366 348.721,28.813 349.104 C 29.260 349.487,29.755 349.800,29.913 349.801 C 30.071 349.801,30.740 350.167,31.400 350.615 C 32.060 351.063,33.095 351.678,33.700 351.982 C 34.305 352.286,34.800 352.660,34.800 352.813 C 34.800 352.966,35.655 353.414,36.700 353.808 C 37.745 354.202,38.744 354.766,38.920 355.062 C 39.096 355.358,39.456 355.605,39.720 355.611 C 39.984 355.617,40.907 356.157,41.771 356.811 C 42.635 357.465,43.572 358.000,43.851 358.000 C 44.131 358.000,44.518 358.281,44.710 358.625 C 44.902 358.969,45.316 359.302,45.630 359.366 C 46.476 359.537,49.062 360.766,48.615 360.784 C 48.091 360.806,51.273 362.475,51.900 362.507 C 52.175 362.522,52.400 362.693,52.400 362.889 C 52.400 363.085,53.210 363.603,54.200 364.041 C 55.190 364.479,56.000 364.995,56.000 365.188 C 56.000 365.380,56.618 365.742,57.374 365.991 C 58.130 366.241,58.805 366.584,58.874 366.754 C 58.998 367.057,62.382 369.060,65.313 370.563 C 66.131 370.983,66.800 371.478,66.800 371.663 C 66.800 371.848,67.132 372.000,67.538 372.000 C 67.944 372.000,68.602 372.360,69.000 372.800 C 69.398 373.240,69.944 373.600,70.213 373.600 C 70.482 373.600,70.924 373.868,71.196 374.196 C 71.468 374.523,71.850 374.693,72.045 374.572 C 72.240 374.451,72.400 374.526,72.400 374.737 C 72.400 374.949,72.906 375.298,73.524 375.514 C 74.143 375.729,74.908 376.152,75.224 376.453 C 75.541 376.754,76.475 377.312,77.300 377.694 C 78.125 378.075,78.800 378.570,78.800 378.794 C 78.800 379.017,79.055 379.200,79.368 379.200 C 80.040 379.200,82.483 380.439,82.870 380.976 C 83.139 381.349,84.014 381.859,87.033 383.400 C 87.895 383.840,88.658 384.329,88.729 384.486 C 88.800 384.644,89.700 385.184,90.729 385.686 C 91.758 386.189,92.939 386.906,93.354 387.280 C 93.769 387.654,94.625 388.074,95.258 388.213 C 95.890 388.351,96.317 388.611,96.206 388.790 C 96.096 388.969,96.724 389.403,97.603 389.754 C 98.481 390.106,99.200 390.531,99.200 390.699 C 99.200 391.011,101.477 392.157,102.200 392.208 C 102.420 392.224,102.561 392.435,102.513 392.678 C 102.466 392.921,102.916 393.241,103.513 393.390 C 104.111 393.538,104.962 393.997,105.405 394.411 C 105.848 394.824,106.883 395.443,107.705 395.786 C 108.527 396.130,109.200 396.544,109.200 396.708 C 109.200 396.957,111.361 398.116,112.000 398.209 C 112.334 398.258,114.961 399.918,115.588 400.476 C 115.911 400.764,116.896 401.324,117.776 401.720 C 118.657 402.116,119.473 402.576,119.589 402.741 C 119.705 402.906,120.475 403.356,121.300 403.740 C 122.125 404.123,122.801 404.564,122.801 404.719 C 122.802 404.873,123.657 405.340,124.701 405.755 C 125.746 406.171,126.780 406.726,127.000 406.988 C 127.220 407.251,127.887 407.721,128.481 408.033 C 129.076 408.345,131.035 409.455,132.834 410.500 C 134.633 411.545,136.272 412.400,136.476 412.400 C 136.680 412.400,136.750 412.557,136.632 412.749 C 136.513 412.941,137.268 413.420,138.308 413.815 C 139.349 414.210,140.435 414.863,140.723 415.266 C 141.010 415.670,141.496 416.000,141.803 416.000 C 142.109 416.000,143.160 416.540,144.138 417.200 C 145.116 417.860,146.096 418.400,146.315 418.400 C 146.535 418.400,146.818 418.670,146.945 419.000 C 147.071 419.330,147.519 419.600,147.938 419.600 C 148.358 419.600,148.930 419.874,149.208 420.210 C 149.486 420.545,149.805 420.728,149.916 420.617 C 150.028 420.506,150.418 420.759,150.783 421.181 C 151.148 421.602,151.932 422.068,152.524 422.217 C 153.116 422.365,153.600 422.629,153.600 422.804 C 153.600 422.978,154.409 423.454,155.399 423.860 C 156.388 424.267,157.198 424.825,157.199 425.100 C 157.199 425.375,157.553 425.600,157.984 425.600 C 158.416 425.600,159.093 425.948,159.490 426.374 C 159.886 426.800,160.658 427.341,161.205 427.576 C 161.752 427.812,163.280 428.634,164.600 429.403 C 165.920 430.172,167.315 430.912,167.700 431.047 C 168.085 431.183,168.400 431.438,168.400 431.615 C 168.400 431.792,168.940 432.055,169.600 432.200 C 170.260 432.345,170.800 432.639,170.800 432.853 C 170.800 433.067,171.340 433.430,172.000 433.660 C 172.660 433.890,173.200 434.236,173.200 434.428 C 173.200 434.620,174.100 435.165,175.200 435.638 C 176.300 436.111,177.202 436.611,177.204 436.749 C 177.206 436.887,178.016 437.355,179.004 437.790 C 179.992 438.224,180.800 438.706,180.800 438.862 C 180.800 439.017,181.610 439.548,182.600 440.043 C 183.590 440.537,184.400 441.076,184.400 441.239 C 184.400 441.403,184.952 441.658,185.627 441.806 C 186.302 441.954,186.948 442.320,187.062 442.618 C 187.177 442.917,187.930 443.370,188.735 443.625 C 189.541 443.880,190.380 444.301,190.600 444.561 C 191.337 445.431,193.873 446.793,194.203 446.495 C 194.382 446.333,194.411 446.406,194.267 446.658 C 194.106 446.938,194.649 447.373,195.669 447.781 C 196.585 448.147,197.778 448.796,198.321 449.223 C 199.489 450.142,200.521 450.218,201.174 449.431 C 201.561 448.965,201.498 448.902,200.823 449.078 L 200.000 449.293 200.000 345.013 C 200.000 287.659,200.135 240.803,200.300 240.887 C 200.465 240.972,201.500 241.447,202.600 241.942 C 203.700 242.438,205.320 243.181,206.200 243.593 C 207.080 244.005,210.050 245.357,212.800 246.597 C 215.550 247.837,218.610 249.227,219.600 249.686 C 223.925 251.693,225.556 252.440,228.000 253.536 C 233.422 255.967,239.867 258.881,241.600 259.686 C 245.776 261.625,247.542 262.434,250.000 263.536 C 257.762 267.016,262.754 269.280,267.400 271.428 C 269.436 272.370,271.048 273.100,279.200 276.776 C 283.814 278.856,285.683 279.709,289.400 281.429 C 290.500 281.938,294.640 283.819,298.600 285.608 C 306.763 289.297,308.576 290.122,311.400 291.429 C 312.500 291.938,316.640 293.811,320.600 295.592 C 330.184 299.901,330.650 300.113,333.200 301.317 C 334.410 301.889,337.290 303.199,339.600 304.228 C 341.910 305.258,344.970 306.636,346.400 307.290 C 347.830 307.945,349.990 308.927,351.200 309.474 C 352.410 310.021,354.300 310.893,355.400 311.412 C 356.500 311.931,359.290 313.199,361.600 314.228 C 363.910 315.258,366.970 316.636,368.400 317.290 C 369.830 317.945,371.990 318.927,373.200 319.474 C 374.410 320.021,376.300 320.893,377.400 321.412 C 378.500 321.931,381.290 323.199,383.600 324.228 C 385.910 325.258,388.970 326.623,390.400 327.260 C 391.830 327.898,393.855 328.866,394.900 329.410 C 395.945 329.955,397.046 330.400,397.346 330.400 C 397.646 330.400,398.366 330.773,398.946 331.229 C 399.880 331.963,400.476 331.809,399.700 331.033 C 399.535 330.868,399.387 330.613,399.371 330.467 C 399.301 329.804,398.167 327.769,397.708 327.480 C 397.429 327.304,397.200 326.933,397.200 326.656 C 397.200 326.378,396.885 325.802,396.500 325.375 C 395.728 324.520,394.987 323.087,394.596 321.694 C 394.457 321.196,394.208 320.871,394.044 320.973 C 393.880 321.074,393.521 320.537,393.247 319.779 C 392.973 319.020,392.596 318.400,392.410 318.400 C 392.224 318.400,391.679 317.590,391.200 316.600 C 390.721 315.610,390.135 314.800,389.898 314.800 C 389.661 314.800,389.574 314.692,389.706 314.560 C 389.976 314.291,388.464 311.202,388.060 311.196 C 387.917 311.194,387.450 310.395,387.021 309.421 C 386.593 308.447,386.123 307.724,385.977 307.814 C 385.831 307.904,385.382 307.178,384.978 306.200 C 384.575 305.222,384.161 304.506,384.058 304.609 C 383.955 304.712,383.545 304.070,383.147 303.182 C 382.750 302.294,382.160 301.303,381.837 300.979 C 381.513 300.656,381.022 299.763,380.744 298.996 C 380.466 298.228,380.104 297.600,379.938 297.600 C 379.773 297.600,379.279 296.790,378.841 295.800 C 378.403 294.810,377.869 294.000,377.654 294.000 C 377.438 294.000,377.059 293.386,376.812 292.635 C 376.564 291.885,376.089 291.166,375.755 291.038 C 375.422 290.910,375.249 290.645,375.370 290.448 C 375.492 290.252,375.323 289.868,374.996 289.596 C 374.668 289.324,374.400 288.946,374.400 288.756 C 374.400 288.565,374.085 288.041,373.700 287.592 C 373.315 287.142,372.991 286.645,372.980 286.487 C 372.926 285.691,372.301 284.400,371.970 284.400 C 371.763 284.400,371.306 283.681,370.954 282.803 C 370.603 281.924,370.152 281.306,369.953 281.429 C 369.754 281.552,369.483 281.114,369.351 280.454 C 369.219 279.795,368.814 278.928,368.450 278.528 C 368.087 278.127,367.452 277.040,367.039 276.111 C 366.626 275.182,366.153 274.506,365.987 274.608 C 365.821 274.711,365.397 274.076,365.046 273.197 C 364.694 272.319,364.228 271.600,364.011 271.600 C 363.793 271.600,363.506 271.164,363.372 270.631 C 363.160 269.786,361.042 266.136,360.104 265.000 C 359.922 264.780,359.463 263.939,359.083 263.132 C 358.704 262.325,358.205 261.602,357.975 261.525 C 357.745 261.448,357.513 261.119,357.459 260.793 C 357.311 259.892,356.347 258.238,355.772 257.897 C 355.490 257.730,355.052 256.964,354.798 256.193 C 354.544 255.423,354.203 254.875,354.040 254.975 C 353.878 255.075,353.509 254.492,353.221 253.679 C 352.933 252.865,352.356 251.874,351.939 251.476 C 351.523 251.078,351.287 250.583,351.415 250.376 C 351.543 250.169,351.474 250.000,351.263 250.000 C 351.051 250.000,350.676 249.505,350.429 248.900 C 349.816 247.399,348.016 244.505,348.003 245.000 C 347.997 245.220,347.562 244.477,347.037 243.349 C 346.512 242.221,345.881 241.174,345.635 241.021 C 345.388 240.869,345.291 240.577,345.417 240.372 C 345.544 240.168,345.469 240.000,345.251 240.000 C 345.032 240.000,344.730 239.609,344.578 239.131 C 344.426 238.653,343.964 237.899,343.551 237.455 C 343.138 237.012,342.800 236.332,342.800 235.944 C 342.800 235.557,342.549 235.096,342.242 234.920 C 341.935 234.744,341.291 233.880,340.812 233.000 C 340.333 232.120,339.414 230.590,338.771 229.600 C 338.128 228.610,337.336 227.231,337.011 226.537 C 336.686 225.842,336.280 225.212,336.110 225.137 C 335.939 225.061,335.440 224.280,335.000 223.400 C 334.560 222.520,334.051 221.620,333.870 221.400 C 333.328 220.744,331.661 217.894,331.003 216.500 C 330.665 215.785,330.227 215.200,330.028 215.200 C 329.829 215.200,329.357 214.390,328.979 213.400 C 328.601 212.410,328.138 211.600,327.951 211.600 C 327.764 211.600,327.333 210.935,326.993 210.122 C 326.653 209.308,325.931 208.060,325.388 207.348 C 324.844 206.636,324.400 205.861,324.400 205.627 C 324.400 205.392,324.244 205.200,324.054 205.200 C 323.864 205.200,323.399 204.390,323.021 203.400 C 322.643 202.410,322.181 201.600,321.994 201.600 C 321.807 201.600,321.552 201.280,321.428 200.888 C 321.220 200.233,318.863 196.332,318.112 195.400 C 317.935 195.180,317.450 194.235,317.034 193.300 C 316.619 192.365,316.153 191.600,316.000 191.600 C 315.847 191.600,315.397 190.880,315.000 190.000 C 314.603 189.120,314.145 188.400,313.983 188.400 C 313.820 188.400,313.399 187.680,313.047 186.800 C 312.695 185.920,312.245 185.200,312.047 185.200 C 311.849 185.200,311.582 184.784,311.455 184.275 C 311.327 183.767,310.766 182.822,310.209 182.175 C 309.651 181.529,309.080 180.640,308.940 180.200 C 308.800 179.760,308.261 178.843,307.742 178.162 C 307.224 177.481,306.800 176.729,306.800 176.491 C 306.800 176.252,306.485 175.742,306.100 175.357 C 305.715 174.972,305.385 174.554,305.366 174.429 C 305.247 173.611,304.352 172.000,304.018 172.000 C 303.796 172.000,303.495 171.505,303.348 170.900 C 303.063 169.728,302.010 167.959,301.985 168.611 C 301.977 168.825,301.514 168.055,300.955 166.900 C 300.396 165.745,299.773 164.800,299.569 164.800 C 299.366 164.800,299.200 164.555,299.200 164.256 C 299.200 163.957,298.728 163.016,298.152 162.167 C 297.575 161.317,297.073 160.437,297.036 160.211 C 296.929 159.557,296.027 158.158,295.998 158.600 C 295.983 158.820,295.600 158.209,295.147 157.242 C 294.694 156.276,294.153 155.286,293.945 155.042 C 293.111 154.070,290.800 150.199,290.800 149.776 C 290.800 149.528,290.350 148.801,289.800 148.162 C 289.251 147.523,288.801 146.773,288.800 146.496 C 288.800 146.219,288.440 145.684,288.000 145.307 C 287.560 144.930,287.200 144.470,287.200 144.283 C 287.200 144.097,286.687 143.192,286.061 142.272 C 285.434 141.352,284.799 140.098,284.649 139.484 C 284.499 138.870,284.225 138.461,284.040 138.576 C 283.854 138.690,283.394 137.976,283.017 136.989 C 282.640 136.002,282.190 135.282,282.017 135.389 C 281.844 135.496,281.390 134.767,281.009 133.768 C 280.627 132.769,280.217 132.050,280.097 132.170 C 279.827 132.439,279.018 130.921,278.650 129.457 C 278.500 128.858,278.235 128.455,278.061 128.562 C 277.887 128.670,277.521 128.137,277.247 127.379 C 276.973 126.620,276.573 126.000,276.360 126.000 C 276.146 126.000,275.605 125.235,275.156 124.300 C 273.666 121.193,272.418 119.058,271.906 118.742 C 271.628 118.570,271.387 118.288,271.371 118.115 C 271.309 117.428,270.187 115.381,269.708 115.080 C 269.429 114.904,269.200 114.533,269.200 114.256 C 269.200 113.978,268.885 113.393,268.500 112.955 C 267.520 111.841,266.800 110.516,266.800 109.825 C 266.800 109.503,266.572 109.096,266.294 108.920 C 266.015 108.744,265.432 107.851,264.997 106.936 C 264.563 106.021,264.089 105.345,263.946 105.434 C 263.706 105.582,263.117 104.598,263.035 103.913 C 263.016 103.755,262.704 103.280,262.342 102.857 C 261.980 102.435,261.441 101.416,261.143 100.594 C 260.846 99.772,260.377 99.013,260.101 98.907 C 259.826 98.801,259.600 98.509,259.599 98.257 C 259.598 97.865,257.078 93.813,256.074 92.591 C 255.889 92.366,255.406 91.429,255.000 90.510 C 254.595 89.590,254.114 88.930,253.931 89.042 C 253.659 89.211,253.455 88.660,253.656 88.300 C 253.714 88.195,250.653 83.295,250.095 82.600 C 249.918 82.380,249.439 81.480,249.029 80.600 C 248.620 79.720,248.037 78.854,247.734 78.675 C 247.431 78.497,247.275 78.202,247.387 78.021 C 247.499 77.839,247.323 77.468,246.996 77.196 C 246.668 76.924,246.400 76.546,246.400 76.356 C 246.400 76.165,246.085 75.641,245.700 75.192 C 245.315 74.742,245.090 74.324,245.200 74.264 C 245.310 74.203,244.905 73.565,244.300 72.846 C 243.695 72.127,243.200 71.282,243.200 70.969 C 243.200 70.656,243.020 70.400,242.800 70.400 C 242.580 70.400,242.400 70.029,242.400 69.576 C 242.400 69.123,242.245 68.849,242.056 68.965 C 241.867 69.082,241.377 68.418,240.967 67.489 C 240.557 66.560,240.090 65.704,239.928 65.587 C 239.767 65.470,239.386 64.783,239.082 64.060 C 238.778 63.337,238.414 62.803,238.273 62.873 C 238.043 62.988,236.940 61.121,234.921 57.200 C 234.524 56.430,234.003 55.590,233.763 55.334 C 233.522 55.078,233.095 54.313,232.814 53.634 C 232.533 52.955,232.164 52.400,231.995 52.400 C 231.825 52.400,231.413 51.715,231.078 50.877 C 230.743 50.040,230.183 49.118,229.834 48.828 C 229.485 48.539,229.200 48.116,229.200 47.889 C 229.200 47.661,228.784 46.919,228.275 46.238 C 227.767 45.557,227.116 44.417,226.829 43.705 C 226.542 42.993,226.148 42.509,225.954 42.629 C 225.759 42.749,225.600 42.594,225.600 42.285 C 225.600 41.491,224.410 39.200,223.998 39.200 C 223.809 39.200,223.527 38.799,223.371 38.309 C 223.216 37.819,222.484 36.539,221.744 35.464 C 221.005 34.390,220.400 33.250,220.400 32.932 C 220.400 32.613,220.247 32.447,220.060 32.563 C 219.872 32.679,219.479 32.046,219.186 31.158 C 218.893 30.269,218.368 29.330,218.020 29.071 C 217.672 28.812,217.169 28.105,216.902 27.500 C 216.636 26.895,216.256 26.400,216.059 26.400 C 215.861 26.400,215.593 25.866,215.463 25.213 C 215.332 24.559,214.898 23.698,214.499 23.299 C 214.100 22.900,213.438 21.859,213.029 20.987 C 212.620 20.114,212.041 19.256,211.742 19.080 C 211.444 18.904,211.200 18.419,211.200 18.003 C 211.200 17.586,210.881 17.010,210.491 16.723 C 210.101 16.435,209.444 15.435,209.030 14.500 C 208.617 13.565,208.162 12.800,208.020 12.800 C 207.877 12.800,207.542 12.196,207.275 11.457 C 207.008 10.719,206.432 9.791,205.995 9.395 C 205.558 9.000,205.200 8.366,205.200 7.987 C 205.200 7.608,204.921 7.066,204.580 6.784 C 204.239 6.501,203.605 5.489,203.170 4.535 C 202.736 3.581,202.248 2.800,202.088 2.800 C 201.927 2.800,201.563 2.276,201.280 1.636 C 200.997 0.996,200.548 0.389,200.282 0.287 C 199.906 0.143,199.822 26.632,199.901 120.421 M398.176 332.587 C 397.517 333.086,397.499 333.176,398.057 333.187 C 398.419 333.194,398.818 332.930,398.945 332.600 C 399.231 331.855,399.147 331.853,398.176 332.587 M395.300 334.234 C 394.585 334.546,394.000 334.982,394.000 335.201 C 394.000 335.777,394.199 335.713,395.838 334.600 C 397.467 333.495,397.280 333.368,395.300 334.234 M383.200 341.400 C 381.845 342.400,381.796 342.728,383.105 342.029 C 383.487 341.825,384.115 341.561,384.500 341.442 C 385.195 341.227,385.495 340.400,384.878 340.400 C 384.700 340.400,383.945 340.850,383.200 341.400 M380.804 342.996 C 380.532 343.323,380.122 343.475,379.893 343.334 C 379.654 343.186,379.596 343.270,379.757 343.530 C 380.054 344.011,381.600 343.318,381.600 342.704 C 381.600 342.245,381.351 342.336,380.804 342.996 M374.400 346.824 C 374.400 347.057,374.220 347.136,374.000 347.000 C 373.780 346.864,373.600 346.943,373.600 347.176 C 373.600 347.667,373.707 347.687,374.567 347.357 C 375.265 347.089,375.433 346.400,374.800 346.400 C 374.580 346.400,374.400 346.591,374.400 346.824 M370.734 348.669 C 370.368 348.766,369.971 349.097,369.853 349.405 C 369.678 349.862,369.819 349.883,370.619 349.518 C 371.159 349.273,371.600 348.920,371.600 348.736 C 371.600 348.551,371.555 348.421,371.500 348.446 C 371.445 348.472,371.100 348.572,370.734 348.669 M367.544 350.787 C 366.315 351.810,367.093 351.823,368.400 350.800 C 368.950 350.370,369.195 350.014,368.944 350.009 C 368.694 350.004,368.064 350.354,367.544 350.787 M364.500 352.488 C 363.597 352.924,363.276 353.600,363.971 353.600 C 364.342 353.600,365.600 352.496,365.600 352.171 C 365.600 351.958,365.596 351.960,364.500 352.488 M360.003 355.197 C 359.494 355.639,359.251 356.000,359.462 356.000 C 360.056 356.000,361.428 354.895,361.164 354.630 C 361.034 354.501,360.512 354.756,360.003 355.197 M356.426 357.369 C 356.039 357.835,356.102 357.898,356.777 357.722 C 357.230 357.604,357.600 357.348,357.600 357.153 C 357.600 356.614,356.954 356.732,356.426 357.369 M350.267 360.667 C 349.743 361.190,350.013 361.522,350.796 361.317 C 351.233 361.203,351.492 360.950,351.372 360.755 C 351.112 360.334,350.637 360.296,350.267 360.667 M346.084 363.415 C 345.417 364.172,346.022 364.170,347.024 363.413 C 347.609 362.970,347.652 362.826,347.200 362.828 C 346.870 362.829,346.368 363.094,346.084 363.415 M339.987 367.004 C 339.444 367.314,338.415 367.878,337.700 368.258 C 336.985 368.637,336.400 369.105,336.400 369.298 C 336.400 369.490,336.192 369.519,335.938 369.362 C 335.661 369.190,335.585 369.252,335.748 369.515 C 335.963 369.864,339.431 368.205,341.167 366.923 C 341.769 366.478,340.789 366.545,339.987 367.004 M398.217 370.124 C 397.786 370.386,397.188 370.825,396.888 371.100 C 396.588 371.375,396.100 371.600,395.802 371.600 C 395.505 371.600,394.716 372.059,394.050 372.619 C 393.384 373.180,392.426 373.718,391.921 373.815 C 391.416 373.913,390.937 374.189,390.857 374.429 C 390.777 374.670,389.921 375.205,388.956 375.619 C 387.990 376.033,387.200 376.558,387.200 376.786 C 387.200 377.014,386.948 377.200,386.640 377.200 C 386.332 377.200,385.144 377.830,384.000 378.600 C 382.856 379.370,381.662 380.000,381.347 380.000 C 381.032 380.000,380.672 380.269,380.546 380.598 C 380.419 380.926,380.175 381.108,380.003 381.002 C 379.831 380.896,379.468 381.077,379.196 381.404 C 378.924 381.732,378.482 382.000,378.213 382.000 C 377.944 382.000,377.397 382.361,376.998 382.802 C 376.598 383.244,376.186 383.519,376.081 383.414 C 375.976 383.309,375.332 383.623,374.650 384.112 C 373.968 384.600,372.778 385.314,372.005 385.698 C 370.232 386.579,367.064 388.442,366.800 388.760 C 366.579 389.025,365.867 389.437,362.482 391.255 C 361.227 391.929,359.930 392.703,359.600 392.975 C 359.270 393.246,358.409 393.702,357.687 393.988 C 356.965 394.274,356.469 394.603,356.585 394.719 C 356.701 394.835,356.037 395.270,355.109 395.685 C 354.181 396.101,353.327 396.586,353.211 396.763 C 353.095 396.941,352.190 397.475,351.200 397.950 C 349.187 398.916,346.443 400.524,345.734 401.154 C 345.478 401.381,344.803 401.684,344.234 401.827 C 343.665 401.970,343.200 402.334,343.200 402.636 C 343.200 402.938,342.705 403.306,342.100 403.454 C 341.495 403.602,340.910 403.851,340.800 404.008 C 340.690 404.164,339.790 404.697,338.800 405.192 C 337.810 405.687,336.427 406.521,335.727 407.046 C 335.026 407.571,334.178 408.000,333.841 408.000 C 333.504 408.000,333.035 408.360,332.800 408.800 C 332.565 409.240,332.052 409.600,331.661 409.600 C 331.271 409.600,330.564 409.960,330.092 410.400 C 329.620 410.840,329.082 411.200,328.896 411.200 C 328.711 411.200,327.451 411.920,326.097 412.800 C 324.742 413.680,323.447 414.400,323.217 414.400 C 322.988 414.400,322.800 414.556,322.800 414.746 C 322.800 414.936,321.990 415.401,321.000 415.779 C 320.010 416.157,319.200 416.619,319.200 416.806 C 319.200 416.993,318.795 417.269,318.300 417.419 C 317.805 417.570,316.815 418.131,316.099 418.668 C 315.383 419.204,314.249 419.834,313.578 420.067 C 312.908 420.301,312.451 420.584,312.563 420.696 C 312.675 420.808,311.884 421.373,310.805 421.950 C 309.726 422.528,307.843 423.533,306.621 424.184 C 305.400 424.835,304.400 425.490,304.400 425.640 C 304.400 425.790,303.905 426.037,303.300 426.189 C 302.695 426.341,301.878 426.810,301.484 427.232 C 301.091 427.655,300.416 428.000,299.984 428.000 C 299.553 428.000,299.200 428.167,299.200 428.372 C 299.200 428.697,295.153 431.123,291.900 432.750 C 291.295 433.052,290.800 433.457,290.800 433.650 C 290.800 433.842,290.446 434.000,290.014 434.000 C 289.582 434.000,289.047 434.339,288.825 434.754 C 288.603 435.169,287.936 435.630,287.342 435.779 C 286.749 435.928,285.820 436.398,285.278 436.825 C 284.736 437.251,284.124 437.600,283.918 437.600 C 283.712 437.600,282.702 438.183,281.672 438.895 C 280.642 439.607,279.665 440.215,279.500 440.245 C 279.335 440.275,278.990 440.323,278.733 440.350 C 278.477 440.377,278.386 440.519,278.532 440.665 C 278.677 440.811,278.037 441.270,277.109 441.685 C 276.181 442.101,275.327 442.588,275.211 442.769 C 275.095 442.950,274.145 443.485,273.100 443.959 C 272.055 444.432,271.200 444.981,271.200 445.178 C 271.200 445.375,270.660 445.655,270.000 445.800 C 269.340 445.945,268.800 446.280,268.800 446.544 C 268.800 446.808,267.905 447.371,266.811 447.796 C 265.716 448.220,264.732 448.800,264.623 449.084 C 264.514 449.368,264.249 449.600,264.034 449.600 C 263.496 449.600,258.632 452.458,258.466 452.871 C 258.392 453.055,258.167 453.103,257.966 452.979 C 257.765 452.855,257.600 452.929,257.600 453.145 C 257.600 453.360,257.048 453.658,256.373 453.806 C 255.698 453.954,255.049 454.328,254.930 454.638 C 254.812 454.947,254.496 455.200,254.228 455.200 C 253.961 455.200,253.035 455.735,252.171 456.389 C 251.307 457.043,250.351 457.583,250.047 457.589 C 249.743 457.595,249.203 457.930,248.847 458.334 C 248.491 458.738,247.349 459.391,246.308 459.786 C 245.268 460.180,244.488 460.618,244.575 460.760 C 244.663 460.902,243.939 461.346,242.967 461.748 C 241.995 462.150,241.200 462.639,241.200 462.834 C 241.200 463.030,240.531 463.469,239.714 463.810 C 238.897 464.152,238.132 464.564,238.014 464.727 C 237.896 464.889,237.033 465.360,236.096 465.774 C 235.159 466.187,234.480 466.613,234.588 466.721 C 234.696 466.829,233.933 467.348,232.892 467.874 C 229.790 469.441,227.884 470.558,227.043 471.300 C 226.606 471.685,225.923 472.000,225.525 472.000 C 225.126 472.000,224.800 472.270,224.800 472.600 C 224.800 472.930,224.524 473.200,224.186 473.200 C 223.555 473.200,221.810 474.198,220.871 475.095 C 220.581 475.373,220.041 475.600,219.671 475.601 C 219.302 475.601,218.370 476.141,217.600 476.800 C 216.830 477.459,215.930 478.002,215.600 478.006 C 215.091 478.013,212.338 479.630,211.000 480.707 C 210.780 480.885,210.015 481.270,209.300 481.563 C 208.585 481.857,208.000 482.266,208.000 482.472 C 208.000 482.678,207.820 482.736,207.600 482.600 C 207.380 482.464,207.200 482.531,207.200 482.749 C 207.200 482.968,206.880 483.248,206.488 483.372 C 205.755 483.605,201.777 486.040,200.917 486.783 C 200.651 487.012,200.291 487.200,200.117 487.200 C 199.943 487.200,199.846 524.010,199.902 569.000 C 199.958 613.990,200.143 650.800,200.313 650.800 C 200.840 650.800,202.888 648.258,203.293 647.100 C 203.505 646.495,203.941 646.000,204.263 646.000 C 204.584 646.000,204.749 645.842,204.630 645.648 C 204.510 645.455,205.038 644.510,205.802 643.548 C 206.567 642.587,207.194 641.596,207.196 641.346 C 207.198 641.096,207.622 640.615,208.139 640.277 C 208.655 639.939,209.307 639.108,209.587 638.431 C 209.868 637.754,210.233 637.200,210.400 637.200 C 210.567 637.200,210.927 636.660,211.200 636.000 C 211.473 635.340,211.835 634.800,212.003 634.800 C 212.171 634.800,212.608 634.170,212.973 633.400 C 213.339 632.630,213.768 632.000,213.928 632.000 C 214.087 632.000,214.574 631.335,215.009 630.522 C 215.444 629.709,216.218 628.584,216.728 628.022 C 217.238 627.460,217.913 626.715,218.228 626.366 C 218.543 626.018,218.800 625.554,218.800 625.336 C 218.800 625.118,219.250 624.517,219.800 624.000 C 220.350 623.483,220.800 622.856,220.800 622.606 C 220.800 622.356,221.116 621.802,221.503 621.375 C 221.890 620.949,222.548 620.060,222.966 619.400 C 223.384 618.740,223.968 618.056,224.263 617.880 C 224.558 617.704,224.800 617.332,224.800 617.052 C 224.800 616.773,225.444 615.792,226.231 614.872 C 227.018 613.952,227.534 613.200,227.377 613.200 C 227.219 613.200,227.565 612.725,228.145 612.145 C 228.725 611.565,229.205 610.890,229.211 610.645 C 229.217 610.400,229.757 609.675,230.411 609.033 C 231.065 608.392,231.600 607.627,231.600 607.333 C 231.600 607.040,231.750 606.800,231.932 606.800 C 232.115 606.800,232.520 606.305,232.832 605.700 C 233.145 605.095,233.674 604.393,234.009 604.141 C 234.344 603.888,234.870 603.041,235.177 602.259 C 235.484 601.476,235.864 600.916,236.021 601.013 C 236.178 601.110,236.528 600.657,236.798 600.006 C 237.067 599.355,237.673 598.395,238.144 597.873 C 239.959 595.861,240.903 594.551,241.453 593.284 C 241.767 592.560,242.199 592.076,242.412 592.207 C 242.625 592.339,242.801 592.122,242.802 591.724 C 242.803 591.326,243.308 590.460,243.924 589.800 C 244.540 589.140,245.163 588.285,245.309 587.900 C 245.455 587.515,245.733 587.200,245.927 587.200 C 246.120 587.200,246.601 586.485,246.995 585.611 C 247.389 584.737,247.854 584.110,248.027 584.217 C 248.200 584.324,248.471 584.004,248.628 583.506 C 248.786 583.008,249.517 581.863,250.254 580.963 C 250.990 580.063,251.489 579.222,251.362 579.096 C 251.235 578.969,251.507 578.664,251.966 578.418 C 252.425 578.173,252.800 577.741,252.800 577.458 C 252.800 577.006,253.963 575.475,255.731 573.600 C 256.042 573.270,256.594 572.415,256.958 571.700 C 257.323 570.985,257.826 570.400,258.077 570.400 C 258.328 570.400,258.424 570.291,258.291 570.157 C 258.157 570.024,258.220 569.709,258.430 569.457 C 259.536 568.133,261.600 565.212,261.600 564.971 C 261.600 564.819,261.934 564.403,262.343 564.047 C 262.751 563.691,263.214 562.992,263.372 562.494 C 263.529 561.996,263.790 561.670,263.951 561.770 C 264.112 561.869,264.594 561.287,265.022 560.476 C 265.450 559.664,266.115 558.651,266.500 558.225 C 266.885 557.798,267.200 557.219,267.200 556.939 C 267.200 556.658,267.515 556.258,267.900 556.049 C 268.752 555.588,270.078 553.411,269.723 553.056 C 269.582 552.915,269.738 552.800,270.069 552.800 C 270.400 552.800,270.894 552.313,271.165 551.717 C 271.436 551.122,272.005 550.392,272.429 550.095 C 272.853 549.798,273.200 549.245,273.200 548.866 C 273.200 548.488,273.515 547.880,273.900 547.517 C 274.844 546.626,275.600 545.685,275.600 545.400 C 275.600 545.272,275.960 544.780,276.400 544.308 C 276.840 543.836,277.200 543.219,277.200 542.939 C 277.200 542.658,277.575 542.227,278.034 541.982 C 278.493 541.736,278.777 541.443,278.665 541.331 C 278.442 541.109,280.665 537.908,281.980 536.558 C 282.431 536.095,282.800 535.539,282.800 535.324 C 282.800 534.958,285.180 531.659,286.300 530.473 C 286.575 530.181,286.800 529.696,286.800 529.394 C 286.800 529.092,287.133 528.610,287.540 528.323 C 287.948 528.035,288.566 527.260,288.914 526.600 C 289.263 525.940,290.054 524.864,290.674 524.210 C 291.293 523.555,291.755 522.970,291.700 522.910 C 291.406 522.587,291.660 521.990,292.001 522.200 C 292.221 522.337,292.562 522.025,292.759 521.508 C 292.956 520.990,293.405 520.327,293.758 520.035 C 294.111 519.742,294.400 519.254,294.400 518.951 C 294.400 518.648,294.577 518.400,294.792 518.400 C 295.008 518.400,295.297 517.951,295.435 517.403 C 295.573 516.854,295.821 516.489,295.987 516.592 C 296.153 516.694,296.609 516.068,297.000 515.200 C 297.391 514.332,297.854 513.710,298.027 513.817 C 298.200 513.924,298.452 513.665,298.587 513.241 C 298.722 512.817,299.357 511.809,300.000 511.000 C 300.643 510.191,301.278 509.183,301.413 508.759 C 301.548 508.335,301.825 508.092,302.030 508.218 C 302.234 508.345,302.587 507.961,302.813 507.366 C 303.174 506.417,304.452 504.607,306.400 502.288 C 306.730 501.895,307.016 501.445,307.035 501.287 C 307.128 500.506,307.723 499.629,308.030 499.819 C 308.221 499.936,308.491 499.575,308.632 499.016 C 308.772 498.457,309.002 498.000,309.143 497.999 C 309.285 497.999,309.932 497.144,310.583 496.099 C 311.233 495.055,311.925 494.089,312.119 493.954 C 312.313 493.819,312.681 493.355,312.936 492.924 C 314.236 490.726,315.911 488.444,316.091 488.625 C 316.204 488.737,316.613 488.158,317.002 487.339 C 317.391 486.520,317.866 485.659,318.058 485.425 C 319.676 483.456,321.779 480.611,321.692 480.509 C 321.575 480.375,321.715 480.186,323.586 477.947 C 324.254 477.148,324.800 476.326,324.800 476.119 C 324.800 475.913,325.340 475.139,326.000 474.400 C 326.660 473.661,327.200 472.936,327.200 472.790 C 327.200 472.644,327.655 472.001,328.212 471.362 C 328.768 470.723,329.797 469.300,330.498 468.200 C 331.199 467.100,332.008 466.054,332.295 465.875 C 332.582 465.697,332.729 465.408,332.621 465.234 C 332.513 465.060,333.049 464.216,333.812 463.359 C 334.575 462.501,335.200 461.690,335.200 461.555 C 335.200 461.341,336.806 459.136,337.995 457.717 C 338.218 457.451,338.400 457.120,338.400 456.980 C 338.400 456.841,339.030 455.991,339.800 455.092 C 340.570 454.192,341.200 453.227,341.200 452.948 C 341.200 452.668,341.483 452.281,341.829 452.088 C 342.176 451.894,342.671 451.371,342.929 450.925 C 343.859 449.323,345.748 446.558,347.458 444.296 C 348.416 443.028,349.200 441.813,349.200 441.596 C 349.200 441.378,349.369 441.200,349.575 441.200 C 349.781 441.200,350.437 440.305,351.032 439.212 C 351.627 438.118,352.273 437.322,352.467 437.441 C 352.661 437.561,352.770 437.483,352.710 437.267 C 352.649 437.051,353.275 435.962,354.100 434.848 C 354.925 433.733,355.600 432.655,355.600 432.453 C 355.600 432.251,355.870 431.982,356.200 431.855 C 356.530 431.729,356.800 431.349,356.800 431.013 C 356.800 430.676,356.980 430.400,357.200 430.400 C 357.420 430.400,357.600 430.220,357.600 430.000 C 357.600 429.780,357.915 429.261,358.300 428.847 C 359.965 427.058,361.200 425.392,361.200 424.937 C 361.200 424.666,361.536 424.210,361.946 423.923 C 362.655 423.426,362.798 423.189,362.802 422.500 C 362.803 422.335,363.320 421.649,363.951 420.977 C 364.581 420.304,365.223 419.359,365.376 418.877 C 365.529 418.394,365.804 418.000,365.987 418.000 C 366.171 418.000,366.744 417.340,367.260 416.534 C 367.777 415.727,368.555 414.512,368.988 413.834 C 369.421 413.155,370.096 412.251,370.488 411.825 C 370.880 411.398,371.200 410.832,371.200 410.567 C 371.200 410.302,371.470 409.982,371.801 409.855 C 372.131 409.728,372.716 408.944,373.101 408.112 C 373.485 407.281,374.207 406.271,374.704 405.868 C 375.201 405.465,375.511 404.979,375.393 404.788 C 375.274 404.597,375.543 404.245,375.989 404.006 C 376.435 403.767,376.800 403.353,376.800 403.086 C 376.801 402.819,377.251 402.077,377.800 401.438 C 378.350 400.799,378.800 400.158,378.800 400.013 C 378.800 399.869,379.116 399.402,379.503 398.975 C 379.890 398.549,380.548 397.660,380.966 397.000 C 381.384 396.340,381.968 395.656,382.263 395.480 C 382.558 395.304,382.800 394.921,382.800 394.629 C 382.800 394.337,383.074 393.870,383.410 393.592 C 383.745 393.314,383.931 392.998,383.823 392.890 C 383.715 392.782,384.073 392.343,384.617 391.915 C 385.162 391.486,385.512 390.981,385.395 390.793 C 385.279 390.604,385.430 390.303,385.731 390.125 C 386.033 389.946,387.067 388.630,388.030 387.200 C 388.992 385.770,390.014 384.358,390.299 384.062 C 390.585 383.766,391.089 383.001,391.420 382.362 C 391.750 381.723,392.160 381.200,392.330 381.200 C 392.500 381.200,392.868 380.567,393.148 379.794 C 393.427 379.020,393.803 378.478,393.982 378.589 C 394.161 378.699,394.528 378.257,394.798 377.605 C 395.068 376.953,395.640 376.011,396.069 375.510 C 397.883 373.393,398.231 372.950,398.830 372.000 C 400.255 369.738,400.022 369.025,398.217 370.124 M328.794 373.618 C 328.247 374.039,327.980 374.380,328.200 374.378 C 328.729 374.373,330.191 373.258,329.965 373.031 C 329.868 372.934,329.341 373.198,328.794 373.618 M326.800 374.737 C 325.136 375.514,323.124 376.975,323.531 377.110 C 323.785 377.195,324.299 376.959,324.672 376.585 C 325.046 376.211,325.857 375.729,326.476 375.514 C 327.094 375.298,327.600 374.959,327.600 374.761 C 327.600 374.354,327.617 374.355,326.800 374.737 M316.312 380.900 C 315.585 381.566,314.395 382.317,313.339 382.776 C 312.865 382.982,312.338 383.377,312.166 383.655 C 311.995 383.932,312.473 383.770,313.227 383.296 C 313.982 382.822,315.185 382.165,315.900 381.837 C 316.615 381.509,317.200 381.052,317.200 380.820 C 317.200 380.270,316.977 380.290,316.312 380.900 M310.171 384.571 C 309.748 384.881,309.504 385.237,309.630 385.363 C 309.756 385.489,310.205 385.338,310.629 385.029 C 311.052 384.719,311.296 384.363,311.170 384.237 C 311.044 384.111,310.595 384.262,310.171 384.571 M306.267 386.667 C 305.781 387.153,305.990 387.579,306.600 387.345 C 306.930 387.218,307.200 386.954,307.200 386.757 C 307.200 386.338,306.649 386.284,306.267 386.667 M302.162 389.421 L 301.000 390.443 302.100 389.957 C 302.705 389.690,303.200 389.310,303.200 389.112 C 303.200 388.915,303.408 388.881,303.662 389.038 C 303.948 389.215,304.015 389.148,303.838 388.862 C 303.464 388.256,303.504 388.242,302.162 389.421 M298.922 391.410 L 297.800 392.421 299.290 391.710 C 300.110 391.320,300.785 390.865,300.790 390.700 C 300.809 390.116,300.031 390.413,298.922 391.410 M295.354 393.293 C 294.719 393.784,294.140 394.325,294.066 394.495 C 293.992 394.666,293.803 394.726,293.647 394.629 C 293.214 394.361,292.181 395.114,292.518 395.451 C 292.680 395.614,293.305 395.350,293.907 394.865 C 294.508 394.380,295.495 393.789,296.100 393.552 C 296.705 393.315,297.200 392.959,297.200 392.761 C 297.200 392.167,296.576 392.347,295.354 393.293 M288.623 397.433 C 287.974 397.907,287.954 398.000,288.500 398.000 C 288.859 398.000,289.271 397.808,289.416 397.573 C 289.840 396.887,289.461 396.820,288.623 397.433 M282.500 400.834 C 281.383 401.256,281.303 402.003,282.406 401.714 C 283.181 401.512,283.832 400.884,283.540 400.620 C 283.463 400.550,282.995 400.646,282.500 400.834 M279.776 402.587 C 279.289 402.956,279.197 403.179,279.529 403.187 C 279.819 403.194,280.327 402.930,280.657 402.600 C 281.428 401.829,280.791 401.820,279.776 402.587 M275.300 405.246 C 273.598 406.336,273.644 406.557,275.400 405.719 C 276.170 405.352,276.800 404.905,276.800 404.726 C 276.800 404.289,276.789 404.293,275.300 405.246 M272.243 407.014 C 271.905 407.352,271.577 407.591,271.514 407.546 C 271.303 407.394,267.922 409.656,268.098 409.831 C 268.350 410.083,273.200 407.144,273.200 406.740 C 273.200 406.245,272.937 406.320,272.243 407.014 M262.412 412.784 C 262.088 412.989,261.978 413.301,262.166 413.478 C 262.355 413.655,262.590 413.574,262.689 413.298 C 262.788 413.021,263.061 412.914,263.296 413.059 C 263.549 413.216,263.607 413.135,263.438 412.862 C 263.099 412.314,263.150 412.317,262.412 412.784 M258.612 415.180 C 258.465 415.418,258.177 415.509,257.972 415.383 C 257.768 415.256,257.600 415.343,257.600 415.576 C 257.600 415.809,257.859 416.000,258.176 416.000 C 258.793 416.000,259.412 415.279,259.080 414.947 C 258.970 414.837,258.760 414.942,258.612 415.180 M255.556 416.904 C 254.810 417.401,253.705 418.027,253.100 418.295 C 252.495 418.563,252.000 418.967,252.000 419.191 C 252.000 419.802,252.793 419.684,253.041 419.036 C 253.161 418.726,253.650 418.370,254.129 418.245 C 254.967 418.026,257.656 416.044,257.156 416.014 C 257.022 416.006,256.302 416.407,255.556 416.904 M248.676 420.981 C 248.357 421.300,247.984 421.450,247.848 421.314 C 247.711 421.178,247.600 421.256,247.600 421.487 C 247.600 421.718,247.240 422.001,246.800 422.116 C 246.360 422.231,246.003 422.567,246.006 422.863 C 246.010 423.188,246.128 423.242,246.306 423.000 C 246.468 422.780,247.275 422.257,248.100 421.837 C 248.925 421.417,249.600 420.922,249.600 420.737 C 249.600 420.251,249.337 420.320,248.676 420.981 M238.500 426.834 C 237.383 427.256,237.303 428.003,238.406 427.714 C 239.181 427.512,239.832 426.884,239.540 426.620 C 239.463 426.550,238.995 426.646,238.500 426.834 M235.700 428.488 C 235.205 428.727,234.800 429.085,234.800 429.285 C 234.800 429.484,234.620 429.536,234.400 429.400 C 234.180 429.264,234.000 429.343,234.000 429.576 C 234.000 429.809,234.062 430.000,234.139 430.000 C 234.515 430.000,236.814 428.702,237.016 428.375 C 237.311 427.897,236.843 427.937,235.700 428.488 M228.400 432.800 C 228.083 432.996,227.956 433.289,228.118 433.452 C 228.281 433.614,228.623 433.537,228.880 433.280 C 229.484 432.676,229.147 432.338,228.400 432.800 M226.081 434.236 C 225.355 434.736,224.545 435.224,224.281 435.318 C 224.016 435.413,223.930 435.630,224.089 435.801 C 224.321 436.050,225.562 435.311,227.567 433.731 C 228.365 433.103,227.101 433.531,226.081 434.236 M222.177 436.567 C 221.750 436.879,221.507 437.240,221.636 437.370 C 221.766 437.499,222.288 437.244,222.797 436.803 C 223.849 435.890,223.358 435.704,222.177 436.567 M218.400 438.800 C 218.083 438.996,217.956 439.289,218.118 439.452 C 218.281 439.614,218.623 439.537,218.880 439.280 C 219.484 438.676,219.147 438.338,218.400 438.800 M217.142 439.475 C 217.064 439.654,216.280 440.160,215.400 440.600 C 213.641 441.479,210.400 443.564,210.400 443.816 C 210.400 444.125,211.811 443.472,212.600 442.797 C 213.040 442.421,214.268 441.689,215.329 441.171 C 217.256 440.230,217.856 439.722,217.482 439.348 C 217.373 439.239,217.220 439.296,217.142 439.475 M208.184 444.827 C 208.039 445.061,208.016 445.349,208.133 445.467 C 208.420 445.753,209.200 445.248,209.200 444.776 C 209.200 444.265,208.509 444.299,208.184 444.827 M206.555 445.904 C 206.123 446.287,205.506 446.659,205.184 446.730 C 204.863 446.802,204.540 447.028,204.466 447.232 C 204.392 447.437,204.167 447.503,203.966 447.379 C 203.765 447.255,203.600 447.343,203.600 447.576 C 203.600 448.301,205.999 447.199,207.567 445.754 C 208.167 445.201,207.186 445.347,206.555 445.904 " stroke="none" fill="#646c8c" fill-rule="evenodd"></path><path id="path3" d="" stroke="none" fill="#849894" fill-rule="evenodd"></path><path id="path4" d="M135.600 105.600 C 135.283 105.796,135.156 106.089,135.318 106.252 C 135.481 106.414,135.823 106.337,136.080 106.080 C 136.684 105.476,136.347 105.138,135.600 105.600 M113.443 142.233 C 113.293 142.623,113.382 142.806,113.675 142.708 C 114.273 142.509,114.602 141.600,114.076 141.600 C 113.861 141.600,113.576 141.885,113.443 142.233 M77.443 201.833 C 77.109 202.703,77.132 202.800,77.667 202.800 C 77.923 202.800,78.015 202.682,77.870 202.537 C 77.725 202.392,77.807 202.032,78.052 201.737 C 78.333 201.399,78.347 201.200,78.092 201.200 C 77.868 201.200,77.576 201.485,77.443 201.833 M31.600 278.000 C 31.283 278.196,31.156 278.489,31.318 278.652 C 31.481 278.814,31.823 278.737,32.080 278.480 C 32.684 277.876,32.347 277.538,31.600 278.000 M25.600 288.000 C 25.283 288.196,25.156 288.489,25.318 288.652 C 25.481 288.814,25.823 288.737,26.080 288.480 C 26.684 287.876,26.347 287.538,25.600 288.000 M35.400 315.414 C 34.740 315.717,34.481 315.972,34.824 315.982 C 35.166 315.992,35.796 315.736,36.224 315.413 C 37.172 314.696,36.969 314.696,35.400 315.414 M7.825 317.432 C 7.250 318.007,7.288 318.800,7.890 318.800 C 8.024 318.800,8.013 318.680,7.866 318.532 C 7.719 318.385,7.897 317.935,8.261 317.532 C 9.072 316.637,8.705 316.552,7.825 317.432 M21.900 321.429 C 20.405 322.240,20.496 322.578,22.000 321.800 C 22.660 321.459,23.200 321.094,23.200 320.990 C 23.200 320.732,23.157 320.747,21.900 321.429 M13.400 325.414 C 12.740 325.717,12.481 325.972,12.824 325.982 C 13.166 325.992,13.796 325.736,14.224 325.413 C 15.172 324.696,14.969 324.696,13.400 325.414 M69.692 410.475 C 69.891 411.073,70.800 411.402,70.800 410.876 C 70.800 410.661,70.515 410.376,70.167 410.243 C 69.777 410.093,69.594 410.182,69.692 410.475 M75.843 414.167 C 75.976 414.515,76.261 414.800,76.476 414.800 C 77.002 414.800,76.673 413.891,76.075 413.692 C 75.782 413.594,75.693 413.777,75.843 414.167 M125.200 547.124 C 125.200 547.339,125.485 547.624,125.833 547.757 C 126.223 547.907,126.406 547.818,126.308 547.525 C 126.109 546.927,125.200 546.598,125.200 547.124 " stroke="none" fill="#5c80a4" fill-rule="evenodd"></path></g></svg>