<?xml version="1.0" encoding="UTF-8"?>
<svg id="svg14" xmlns="http://www.w3.org/2000/svg" viewBox="0 0 403.54 488.08">
  <defs>
    <style>
      .cls-1 {
        fill: #0ea5e9;
        stroke-width: 0px;
      }
    </style>
  </defs>
  <g id="g12">
    <path id="path4" class="cls-1" d="M53.72,139.51c-2.49,46.37-2.39,122.45-2.39,122.36v117.99c-.17,9.17.42,9.91,3.12,15.52l6.86,10.94c1.75,2.9,10.69,15.99,13.38,18.73,9.97,10.18,10.35-7.11,10.37-8.74-.73-19.1.7-61.1.7-137.6,0,0,.44-103.6,3.08-127.32,3.25-39.38,31.79-64.75,61.5-76.48,18.67-7.37,103.62-32.52,126.26-34.85,11.29-1.81,12.79-2.28,13.44-3.47.38-.69-4.45-2.58-4.45-2.58-17.85-2.9-33.06-8.4-53.67-5.57-39.83,6.1-178.75,28.41-178.19,111.08h0Z"/>
    <path id="path6" class="cls-1" d="M221.49,69.4c-42.23,9.81-101.12,25.08-112.91,70.22-4.23,18.44-4.58,21.31-3.54,150.14l.93,119.01c1.09,15.66.88,15.96,9.4,28.49,27.17,42.8,79.54,61.82,138.76,44.37,69.21-20.5,116.38-58.14,136.01-108.33,11.71-29.68,14.46-60.9,13.08-155.76-1.03-89.05-1.03-89.66-9.99-106.5-18.25-34.58-48.2-52.64-90.9-54.17-24.79-.92-32.29-.64-80.84,12.51ZM327.47,92.38c15.49,7.04,29.61,20.2,35.46,32.44s8.61,165.56,3.44,202.28c-4.82,33.66-17.9,59.67-42.35,82.63-25.82,24.48-55.09,37.95-101.92,47.43-32.02,6.43-70.93-14.08-79.54-41.92-2.41-7.65-3.79-56.61-3.79-134.34,0-112.62.69-123.33,6.54-134.65,11.71-22.34,22.73-28.46,80.23-44.37,59.22-16.53,81.95-18.67,101.92-9.49Z"/>
    <path id="path8" class="cls-1" d="M274.1,105.54l-8.17,2.42c-1.85,1.66-2.38,2-3.2,5.1v97.14c0,64.88-1.38,105.58-3.79,113.53-6.89,21.42-26.86,35.5-67.83,47.74l-29.37,8.54c-5.87,2.12-5.2,6.57-5.68,7.1l.97,7.93c.47,3.33,1.01,6.46,1.55,9.01.66,3.08,3.67,6.11,6.06,5.67,14.49-2.65,62.02-16.56,75.03-22.34,30.1-14.27,47.84-34.93,51.93-60.23,5.51-34.08,4.7-74.52,4.88-111.45,1.03-127,3.1-117.51-22.38-110.17Z"/>
    <path id="path10" class="cls-1" d="M314.38,216.63c0,106.5-.34,112.31-7.23,129.14-8.61,19.59-32.37,44.37-51.3,52.94-6.54,2.75-27.55,9.79-46.48,15.3s-35.81,11.02-37.19,12.24c-5.85,4.59,20.31,15.3,37.53,15.3,19.28-.31,60.26-13.46,81.6-26.62,19.97-12.24,42.35-40.7,50.62-64.26,6.2-18.06,6.89-28.46,6.89-117.82s-.34-98.54-6.89-108.03c-4.86-6.96-14.6-15.24-21.23-18.49-1.82-.89-4.96.26-5.12,3.35-.73,13.89-1.19,56.63-1.19,106.95Z"/>
    <path id="path24154" class="cls-1" d="M14.69,72.73c-3.26,4.71-13.02,26.51-13.46,38.9C-.08,158,.02,233.79.03,233.7v117.99c-.17,9.17.42,9.91,3.12,15.52l6.86,10.94c1.75,2.9,10.69,15.99,13.38,18.73,9.97,10.18,10.35-7.11,10.37-8.74-.73-19.1.7-61.1.7-137.6,0,0-1.19-95.31,1.45-119.03C40.64,51.67,140.37,35.05,225.3,13.13c11.29-1.81,12.79-3.54,13.44-4.72.38-.69-4.45-2.58-4.45-2.58-17.85-2.9-37.8-7.81-58.41-4.98C113.04,9.47,41.48,31.06,14.69,72.73h0Z"/>
  </g>
</svg>